<svg xmlns="http://www.w3.org/2000/svg" xmlns:xlink="http://www.w3.org/1999/xlink" viewBox="0 0 304.82 305.47"><defs><style>.cls-1{fill:none;}.cls-2,.cls-7{fill:#fff;}.cls-3{clip-path:url(#clip-path);}.cls-4{fill:#1f66b1;}.cls-5,.cls-8{fill:#1e66b1;}.cls-6{clip-path:url(#clip-path-2);}.cls-7,.cls-8{fill-rule:evenodd;}.cls-9{fill:#ed1d24;}</style><clipPath id="clip-path" transform="translate(0 -2.4)"><rect class="cls-1" x="3.25" width="290.7" height="309.22"/></clipPath><clipPath id="clip-path-2" transform="translate(0 -2.4)"><polygon class="cls-1" points="52.83 88.2 52.83 218.64 157.98 297.02 264.01 213.98 264.01 88.2 158.49 12.97 52.83 88.2"/></clipPath></defs><title>Chemexcil</title><g id="Layer_2" data-name="Layer 2"><g id="Layer_1-2" data-name="Layer 1"><polygon class="cls-2" points="44.84 219.85 44.84 152.23 44.84 138.97 44.84 82.08 158.49 1.15 272.01 82.08 272.01 215.08 158.11 304.29 44.84 219.85"/><g class="cls-3"><path class="cls-4" d="M158.12,307.87l-.57-.42L43.9,222.72V84l.39-.28L158.49,2.4,273,84V217.94l-.36.28ZM45.77,221.78l112.32,83.73,113-88.49V85L158.49,4.7,45.77,85Z" transform="translate(0 -2.4)"/></g><polygon class="cls-5" points="52.83 216.24 52.83 85.8 158.49 10.57 264.01 85.8 264.01 211.58 157.98 294.62 52.83 216.24"/><g class="cls-6"><path class="cls-2" d="M159.4,297.87h-1.56V11.77h1.56Zm-4.89-2.7H153V15.07h1.56Zm9.39-.82h-1.56V15h1.56Zm-14.27-2.82h-1.57v-273h1.57Zm18.55-.53h-1.56V18h1.56Zm-23.44-3.11h-1.56V22h1.56Zm28.25-.66h-1.57V21.45H173Zm-33.14-3h-1.56V25.51h1.56Zm38.07-.87h-1.56V25h1.56Zm-43-2.77H133.4V29H135Zm46.73-.18h-1.57V27.66h1.57ZM130.08,277h-1.57V32.47h1.57Zm56.54-.4h-1.56V31.17h1.56Zm-61.43-3.25h-1.56V36h1.56Zm66.36-.62H190v-238h1.56Zm-70.35-2.35h-1.56V38.78h1.56Zm75.29-1.51h-1.56V38.21h1.56Zm-80.35-2.26h-1.56V42.39h1.56ZM201.42,265h-1.56V41.73h1.56Zm-90.34-2.16h-1.57V46h1.57Zm94.81-1.34h-1.56V44.91h1.56Zm-99.1-1.86h-1.56V49.05h1.56Zm104-2h-1.57V48.43h1.57Zm-108.71-1.48h-1.56V52.37h1.56Zm113.38-2.19h-1.56V51.76h1.56ZM97.18,252.44H95.62V55.89h1.56Zm122.61-1.86h-1.56V54.82h1.56ZM92.72,249.11H91.15v-190h1.57Zm132.13-2.5h-1.56V58.43h1.56ZM87.78,245.43H86.22V62.58h1.56Zm142.14-2.78h-1.57V62h1.57Zm-147.07-.9H81.29V66.09h1.56Zm151-2.22h-1.56V64.87h1.56Zm-156-1.46H76.35V69.61h1.56Zm160.87-2.37h-1.56V68.36h1.56ZM73,234.39H71.42V73.12H73Zm170.69-2.52h-1.56v-160h1.56Zm-174.46-.28H67.65V75.8h1.56Zm179.35-3.54H247V75.33h1.57Zm-184.28-.14H62.72V79.31h1.56Zm-4.81-3.58H57.91V82.73h1.56Zm194-.11h-1.56V78.81h1.56ZM55.19,221.13H53.63V85.78h1.56Zm203.14-.74h-1.56V82.3h1.56Zm4.89-3.83h-1.56V85.78h1.56Z" transform="translate(0 -2.4)"/></g><path class="cls-4" d="M158,298.2l-.57-.42L51.9,219.11V87.72l.39-.28,106.2-75.61.55.38L265,87.72V214.44l-.35.28Zm-104.23-80L158,295.85l105.11-82.33V88.69L158.49,14.13,53.77,88.69Z" transform="translate(0 -2.4)"/><polygon class="cls-5" points="31.42 198.37 15.3 184.05 154.1 183.86 154.1 183.85 157.06 183.85 160.01 183.85 160.01 183.86 293.96 184.05 293.96 188.36 282.69 198.37 293.96 208.66 293.96 213.08 157.06 212.89 15.3 213.09 31.42 198.37"/><polygon class="cls-2" points="157.06 210.31 22.09 210.5 35.4 198.34 22.21 186.63 156.86 186.44 156.86 186.43 157.06 186.43 157.26 186.43 157.26 186.44 291.9 186.63 278.72 198.34 292.02 210.5 157.06 210.31"/><polygon class="cls-5" points="57.59 186.97 76.7 181.08 131.91 166.89 242.78 178.56 256.41 187.21 277.21 215.48 275.44 217.51 271.12 213.82 268.59 211.78 265.96 209.79 263.23 207.85 260.42 205.97 257.51 204.13 254.52 202.35 251.44 200.63 248.28 198.96 245.05 197.35 241.73 195.8 238.33 194.31 234.87 192.88 231.32 191.51 227.71 190.2 224.04 188.96 220.29 187.79 216.48 186.68 212.61 185.64 208.68 184.67 204.69 183.77 200.65 182.94 196.56 182.18 192.41 181.5 188.21 180.9 183.96 180.37 179.67 179.92 175.34 179.55 170.96 179.25 166.55 179.04 162.1 178.92 157.61 178.88 153.07 178.92 148.57 179.05 144.1 179.26 139.67 179.56 135.28 179.94 130.95 180.41 126.65 180.95 122.41 181.57 118.21 182.27 114.07 183.04 109.98 183.89 105.95 184.81 101.98 185.81 98.07 186.87 94.23 188 90.45 189.21 86.74 190.48 83.1 191.81 79.53 193.22 76.04 194.68 72.62 196.21 69.28 197.79 66.03 199.44 62.85 201.14 59.76 202.9 56.76 204.72 53.85 206.6 51.03 208.53 48.31 210.51 45.68 212.54 43.15 214.63 38.88 218.38 57.59 186.97"/><polygon class="cls-2" points="140.93 70.57 143.43 52.56 169.57 52.56 174.48 70.57 140.93 70.57"/><path class="cls-4" d="M175.66,73.88H139.89l2.75-19.82h27.63ZM142,72.07h31.32l-4.41-16.2H144.22Z" transform="translate(0 -2.4)"/><polygon class="cls-2" points="187.98 74.01 199.9 59.69 222.42 72.13 216.88 89.98 187.98 74.01"/><path class="cls-4" d="M217.41,93.71l-30.83-17,13.1-15.75L223.5,74.09Zm-28-17.56,27,14.9,5-16.08L200.12,63.24Z" transform="translate(0 -2.4)"/><polygon class="cls-2" points="226.64 99.38 244.68 92.72 257.33 114.15 242.88 126.88 226.64 99.38"/><path class="cls-4" d="M242.65,130.69l-17.34-29.38L245.07,94l13.42,22.73ZM228,102.26l15.13,25.62,13.07-11.52L244.28,96.23Z" transform="translate(0 -2.4)"/><polygon class="cls-2" points="245.72 137.17 264.95 139.47 265 163.96 245.79 168.59 245.72 137.17"/><path class="cls-4" d="M244.89,172.14l-.08-33.59,21,2.52.06,26Zm1.73-31.55.08,29.25,17.4-4.19-.06-23Z" transform="translate(0 -2.4)"/><polygon class="cls-2" points="225.28 208.23 242.19 181.09 257.54 192.19 244.35 213.34 225.28 208.23"/><path class="cls-4" d="M244.77,216.79l-20.91-5.6,18.08-29,16.81,12.16Zm-18.08-6.72,17.25,4.63,12.38-19.87-13.87-10Z" transform="translate(0 -2.4)"/><polygon class="cls-2" points="186.94 232.44 216.05 216.81 223.44 233.6 200.76 245.78 186.94 232.44"/><path class="cls-4" d="M200.6,249.29l-15.18-14.66L216.48,218l8.12,18.45Zm-12.14-14.24,12.45,12,21.36-11.48-6.66-15.12Z" transform="translate(0 -2.4)"/><polygon class="cls-2" points="145.12 253.49 140.34 235.45 173.89 235.66 171.26 253.65 145.12 253.49"/><path class="cls-4" d="M172,257l-27.62-.17-5.25-19.86,35.76.23Zm-26.23-2,24.67.15L172.84,239l-31.32-.2Z" transform="translate(0 -2.4)"/><polygon class="cls-2" points="92.9 233.93 98.46 216.08 127.34 232.07 115.41 246.39 92.9 233.93"/><path class="cls-4" d="M115.63,249.94,91.82,236.76l6.11-19.61,30.81,17.06ZM94,235.89l21.21,11.74,10.75-12.89L99,219.81Z" transform="translate(0 -2.4)"/><polygon class="cls-2" points="58.27 192.41 72.66 179.61 89.03 207.04 71.03 213.78 58.27 192.41"/><path class="cls-4" d="M70.64,217.3,57.11,194.63l15.76-14,17.5,29.31ZM59.43,195l12,20.08L87.7,209,72.44,183.41Z" transform="translate(0 -2.4)"/><polygon class="cls-2" points="92.72 71.99 115.51 59.99 129.2 73.45 99.95 88.84 92.72 71.99"/><path class="cls-4" d="M99.51,92.5,91.55,74l24.13-12.7,15,14.79ZM93.89,74.8,100.4,90l27.27-14.36L115.35,63.51Z" transform="translate(0 -2.4)"/><polygon class="cls-2" points="58.11 113.36 71.43 92.29 90.47 97.51 73.38 124.56 58.11 113.36"/><path class="cls-4" d="M73.63,128.26,56.89,116,71,93.63l20.86,5.73Zm-14.3-12.73,13.81,10.12,15.91-25.19L71.84,95.74Z" transform="translate(0 -2.4)"/><polygon class="cls-2" points="50.37 166.08 50.46 141.59 69.7 137.06 69.59 168.49 50.37 166.08"/><path class="cls-4" d="M70.49,171.92l-21-2.63.1-26,21.06-5Zm-19.21-4.24,17.4,2.18.11-29.25-17.42,4.1Z" transform="translate(0 -2.4)"/><g class="cls-3"><path class="cls-7" d="M156.64,70.48c50.92,0,92.21,38.07,92.21,85s-41.29,85-92.21,85-92.21-38.07-92.21-85,41.28-85,92.21-85" transform="translate(0 -2.4)"/><path class="cls-4" d="M156.64,241.48c-51.36,0-93.14-38.57-93.14-86s41.78-86,93.14-86,93.14,38.57,93.14,86S208,241.48,156.64,241.48Zm0-170.07c-50.33,0-91.27,37.73-91.27,84.1s40.94,84.1,91.27,84.1,91.27-37.73,91.27-84.1S207,71.41,156.64,71.41Z" transform="translate(0 -2.4)"/><path class="cls-7" d="M156.59,75c48.2,0,87.27,36,87.27,80.48s-39.07,80.49-87.27,80.49-87.28-36-87.28-80.49S108.39,75,156.59,75" transform="translate(0 -2.4)"/><path class="cls-4" d="M156.59,236.87c-48.64,0-88.21-36.52-88.21-81.42S108,74,156.59,74s88.21,36.52,88.21,81.41S205.23,236.87,156.59,236.87Zm0-161c-47.61,0-86.34,35.68-86.34,79.54S109,235,156.59,235s86.34-35.68,86.34-79.55S204.2,75.91,156.59,75.91Z" transform="translate(0 -2.4)"/><path class="cls-4" d="M153.84,236.76a105,105,0,0,1-25.5-15.9h-24V219h21.85c-18.86-17-29.67-40.12-29.45-65.05a82.11,82.11,0,0,1,8.76-36.22H80.05v-1.88h26.42A88.37,88.37,0,0,1,127,90.42H106.63V88.54h22.61a101,101,0,0,1,24.23-14.38l.72,1.73a99.59,99.59,0,0,0-21.91,12.65h14.25a160.32,160.32,0,0,1,9.31-14.12l.76.56.71-.61a162.13,162.13,0,0,1,10.8,14.17h15A97.54,97.54,0,0,0,161.82,76l.74-1.72a99.27,99.27,0,0,1,23.57,14.25h20.44v1.88H188.35a88.34,88.34,0,0,1,20.23,25.42h24.56v1.88H209.53A83,83,0,0,1,218.17,154c.22,24.9-10.45,48-29,65h19.71v1.87H187a103.28,103.28,0,0,1-24.92,15.79l-.77-1.71a101.33,101.33,0,0,0,22.77-14.08h-16.9q-4.46,7.72-9.84,15.61l-.77-.53-.81.47q-4.65-7.84-8.48-15.55h-16A103,103,0,0,0,154.6,235Zm3.69-15.9v12q4-6,7.5-12Zm-8.12,0q2.9,5.76,6.25,11.6v-11.6ZM168.27,219h18c19.15-16.75,30.19-40,30-65a81.22,81.22,0,0,0-8.87-36.28H182.81C193.51,149.25,188.66,182.77,168.27,219Zm-10.74,0h8.58c20.65-36.27,25.54-69.79,14.68-101.27H157.53Zm-9.06,0h7.19V117.72H135.78C126.4,149.2,130.63,182.72,148.47,219ZM129,219h17.35c-17.64-36.22-21.84-69.74-12.58-101.27H107.61a80.18,80.18,0,0,0-9,36.23C98.39,179,109.59,202.23,129,219Zm53.12-103.15h24.3a86.92,86.92,0,0,0-21-25.42h-16.1A122.21,122.21,0,0,1,182.15,115.84Zm-24.62,0h22.59a121.18,121.18,0,0,0-13-25.42h-9.57Zm-21.17,0h19.3V90.42h-8A129.11,129.11,0,0,0,136.36,115.84Zm-27.76,0h25.77a130.87,130.87,0,0,1,11.08-25.42H129.91A87.12,87.12,0,0,0,108.6,115.84Zm48.93-27.3h8.3q-3.79-5.52-8.3-11Zm-8.82,0h6.95V77.88Q151.9,83.18,148.71,88.54Z" transform="translate(0 -2.4)"/><polygon class="cls-8" points="0 153.31 23.1 153.31 23.1 159.07 30.56 159.07 34.53 153.31 278.95 153.31 284.37 157.3 286.76 153.31 304.82 153.31 304.82 149.86 292.39 149.86 297.52 131.41 286.4 135.1 291.86 126.41 284.28 126.48 282.83 121.72 276.22 126.51 268.31 126.88 256.81 106.73 254.15 107.62 253.42 111.14 244.37 110.97 243.94 117.2 240.1 117.01 233.25 119.02 209.48 118.07 209.48 130.45 203.96 130.45 203.96 140.32 199.21 140.32 199.21 137.86 193.13 137.86 193.13 140.32 181.21 140.32 179.86 137.86 174.46 137.86 171.53 140.32 166.35 140.32 166.35 137.86 156.68 137.86 156.68 140.32 75.48 140.32 71.85 137.86 52.37 137.86 52.17 131.17 48.07 132.28 43.99 129.33 36.83 137.03 9.91 130.44 18.59 150.83 0 150.83 0 153.31"/><polygon class="cls-8" points="157.62 178.88 162.1 178.92 166.55 179.04 170.96 179.25 175.34 179.55 179.67 179.92 183.96 180.37 188.21 180.9 192.41 181.5 196.55 182.18 200.65 182.94 204.69 183.77 208.68 184.67 212.61 185.64 216.48 186.68 220.29 187.79 224.04 188.96 227.72 190.2 231.33 191.51 234.87 192.88 238.33 194.31 241.73 195.8 245.05 197.35 248.28 198.96 251.44 200.63 254.52 202.35 257.51 204.13 260.42 205.97 263.23 207.85 265.96 209.79 268.59 211.78 271.12 213.82 275.44 217.51 253.41 243.3 249.1 240.04 246.91 238.48 244.65 236.94 242.33 235.45 239.95 233.99 237.51 232.58 235.01 231.21 232.46 229.88 229.85 228.59 227.18 227.35 224.47 226.16 221.7 225.01 218.88 223.91 216.01 222.86 213.1 221.85 210.14 220.9 207.14 219.99 204.09 219.14 201 218.34 197.87 217.6 194.7 216.91 191.49 216.27 188.25 215.69 184.97 215.17 181.65 214.7 178.31 214.3 174.93 213.95 171.52 213.67 168.08 213.45 164.62 213.29 161.13 213.19 157.62 213.16 154.06 213.19 150.53 213.29 147.03 213.45 143.56 213.68 140.11 213.97 136.7 214.32 133.32 214.74 129.97 215.21 126.66 215.75 123.38 216.34 120.14 216.99 116.94 217.69 113.78 218.46 110.67 219.27 107.59 220.14 104.56 221.06 101.58 222.04 98.64 223.06 95.75 224.14 92.91 225.26 90.13 226.43 87.39 227.66 84.72 228.92 82.09 230.23 79.52 231.58 77.02 232.98 74.57 234.42 72.18 235.91 69.85 237.43 67.59 238.99 65.39 240.59 61.1 243.89 38.88 218.38 43.15 214.63 45.68 212.54 48.31 210.51 51.03 208.53 53.85 206.6 56.76 204.72 59.76 202.9 62.85 201.14 66.03 199.44 69.28 197.79 72.62 196.21 76.04 194.68 79.53 193.22 83.1 191.81 86.74 190.48 90.45 189.21 94.23 188 98.07 186.87 101.98 185.81 105.95 184.81 109.98 183.89 114.07 183.04 118.21 182.27 122.41 181.57 126.65 180.95 130.94 180.41 135.28 179.94 139.67 179.56 144.1 179.26 148.57 179.05 153.07 178.92 157.62 178.88"/><path class="cls-7" d="M157.62,183.86c47.42,0,89.26,14.41,114.05,36.33L253,242.06C230,224.27,195.81,213,157.62,213c-38.63,0-73.16,11.54-96.13,29.67L42.64,221c24.66-22.39,67-37.16,115-37.16" transform="translate(0 -2.4)"/><path class="cls-9" d="M250.57,211.88l4.09,2.49-8.08,11.24,7.09,4.31-2.27,3.13-11.18-6.8Zm-14.89-7.16,4.36,1.82-7.82,15.71-4.35-1.81Zm-9.29-3.49-2,3.32a12.69,12.69,0,0,0-1.65-1,10.5,10.5,0,0,0-1.62-.62,6.36,6.36,0,0,0-4.54.19,5,5,0,0,0-2.72,3.12,4.37,4.37,0,0,0,.39,3.81,5.75,5.75,0,0,0,3.49,2.42,10.66,10.66,0,0,0,1.73.32,19.72,19.72,0,0,0,2.12.1l-.42,3.74a28.72,28.72,0,0,1-3.24-.18,15.13,15.13,0,0,1-2.61-.5,9.28,9.28,0,0,1-5.88-4.26,8.42,8.42,0,0,1-.45-7,8.59,8.59,0,0,1,4.67-5.39,11,11,0,0,1,7.79-.34,17.27,17.27,0,0,1,2.38.88,26.08,26.08,0,0,1,2.54,1.33m-27.48-7.61,5.2.94-7.31,7.22,4,9.84-5.4-1-1.71-4.48a9.71,9.71,0,0,1-.36-1.23,11,11,0,0,1-.24-1.25L188,209.28l-5.33-1,7.77-7.67-3.81-9.27,5.47,1,1.45,4.08a9.93,9.93,0,0,1,.3,1c.09.4.19.88.29,1.42Zm-34.81-3.81,12.88.64-.22,3.35-8.17-.4-.25,3.44,8.06.4-.24,3.35-8.08-.4-.26,3.71,8.25.41-.26,3.44-13-.64Zm-31.65,1.37,5.72-.47,3.53,10.14c.08.25.22.68.4,1.3s.38,1.3.59,2.06c.07-.74.15-1.41.23-2a12.6,12.6,0,0,1,.2-1.25l2-10.81,5.68-.46,4.45,17-4.51.37-2.16-10.14c-.06-.3-.15-.76-.26-1.38s-.23-1.32-.35-2.09c-.08.76-.16,1.46-.25,2.11s-.16,1.17-.23,1.56l-1.88,10.36-5.32.44L136.83,198l-.43-1.44c-.18-.62-.38-1.31-.59-2.06q0,1.45-.18,3.33c0,.31,0,.53,0,.64l-.56,9.89-4.46.36Zm-25.44,5,12.57-2.72.78,3.29-8,1.72.77,3.37,7.87-1.7.75,3.29-7.88,1.7.84,3.63,8.05-1.74.76,3.37-12.69,2.75Zm-26.87,9.31,4.45-1.68L87.12,210l6.26-2.37-2.49-6.15,4.44-1.68L102,216l-4.45,1.69-2.66-6.47-6.29,2.37L91.23,220l-4.46,1.69Zm-10.38,5.39,1.5,3.54a12.13,12.13,0,0,0-1.82.6,11,11,0,0,0-1.53.79,5.67,5.67,0,0,0-2.71,3.43,4.64,4.64,0,0,0,.89,3.93,4.92,4.92,0,0,0,3.4,2.12,6,6,0,0,0,4.21-1,8.93,8.93,0,0,0,1.35-1.06,17,17,0,0,0,1.42-1.48l2.83,2.67a27.62,27.62,0,0,1-2.18,2.24,15,15,0,0,1-2.05,1.59,9.88,9.88,0,0,1-7.24,1.59,9.53,9.53,0,0,1-6.09-4.06,8,8,0,0,1-1.53-6.8,9.78,9.78,0,0,1,4.62-5.89,20.21,20.21,0,0,1,2.23-1.18c.82-.36,1.72-.69,2.7-1" transform="translate(0 -2.4)"/><path class="cls-8" d="M147,144.05h7.2v3.38H147Zm-9.23,0h5.63v3.38h-5.63Zm-9.22,0h5.62v3.38h-5.62Zm-9.68,0h6.53v3.38h-6.53Zm-8.77,0h6.52v3.38h-6.52Zm-9.9,0h5.4v3.38h-5.4Zm-9,0H98v3.38H91.2Zm-8.32,0h6.75v3.38H82.88Zm-9.45,0h7.65v3.38H73.43Z" transform="translate(0 -2.4)"/><rect class="cls-5" x="57.97" y="152.97" width="2.63" height="3.08"/><rect class="cls-5" x="56.88" y="157.28" width="2.63" height="2.36"/><rect class="cls-5" x="77.82" y="159.03" width="3.51" height="2.36"/><rect class="cls-5" x="87.69" y="161.91" width="4.06" height="1.85"/><rect class="cls-5" x="90.65" y="156.46" width="4.06" height="1.85"/><rect class="cls-5" x="82.85" y="151.69" width="5.89" height="4.56"/><rect class="cls-5" x="103.44" y="151.69" width="5.89" height="4.56"/><rect class="cls-5" x="133.02" y="151.69" width="7.69" height="4.56"/><rect class="cls-5" x="146.81" y="151.69" width="3.89" height="4.56"/><rect class="cls-5" x="161.4" y="151.69" width="5.29" height="4.56"/><rect class="cls-5" x="175.89" y="151.69" width="3" height="4.56"/><rect class="cls-5" x="185.48" y="151.69" width="3" height="4.56"/><rect class="cls-5" x="201.07" y="151.69" width="4.59" height="4.56"/><rect class="cls-5" x="220.21" y="151.69" width="4.6" height="4.56"/><rect class="cls-5" x="233.98" y="151.69" width="4.6" height="2.94"/><rect class="cls-5" x="252.75" y="151.69" width="5.15" height="2.94"/><rect class="cls-5" x="115.67" y="155.57" width="7.82" height="1.66"/><rect class="cls-5" x="111.92" y="159.45" width="5.46" height="1.66"/><rect class="cls-5" x="126.52" y="162.04" width="6.24" height="2.21"/><rect class="cls-5" x="141.12" y="158.71" width="2.49" height="2.22"/><rect class="cls-5" x="165.97" y="158.52" width="2.5" height="2.22"/><rect class="cls-5" x="179.19" y="161.85" width="2.5" height="2.22"/><rect class="cls-5" x="206.61" y="158.52" width="2.5" height="2.22"/><rect class="cls-5" x="220.81" y="158.52" width="2.5" height="2.22"/><rect class="cls-5" x="229.69" y="156.12" width="2.5" height="2.22"/><rect class="cls-5" x="236" y="158.52" width="2.5" height="2.22"/><polygon class="cls-8" points="115.13 141.1 117.6 136.25 118.66 126.77 129.73 132.94 121.6 137.14 120.78 141 115.13 141.1"/><polygon class="cls-7" points="120.54 130.32 120.19 134.93 125.25 133.02 120.54 130.32"/></g></g></g></svg>