<svg xmlns="http://www.w3.org/2000/svg" viewBox="0 0 758.9 500"><defs><style>.cls-1{fill:#930e14;}.cls-2{fill:#403632;}</style></defs><title>Ecocert</title><g id="Layer_2" data-name="Layer 2"><g id="layer"><path class="cls-1" d="M745.4,170.7l-5.1-9.1c-4.2-7.3-9-15.7-10.6-20l-.1-.2a29.91,29.91,0,0,0,14-10.3l15.3-1.1-11-6.7s-.4-9.6-13.7-16c-11.6-5.5-25.8-.1-29.2,1.3-1.1-1.5-3-4.9-6.9-12.2-8.1-14.9-21.6-39.7-31.4-49.3C656,36.7,616.2,11.7,572.6.7A12.17,12.17,0,0,0,569,0a16.83,16.83,0,0,0,2.8,3.7l7.6,7.7a385.86,385.86,0,0,1,28.9,26c12.7,13,21.4,24.3,25.4,30.4,5.8,9,6.7,22.9,8.1,34.5.7,6.2,1.9,16,1.8,16-4.9,5.1-14,9.4-31.5,12.4-37.8,7.3-105.9-.2-110.6.2s-2.9,3.1.6,3.8,71.2,5.3,76.9,7.9,7.7,9.4,3.2,14.8-64.2,32.5-68.1,34-2.4,5,3.1,2.9,75.6-36.4,104.8-37.5c7.8-.5,39.7,4.3,43.7,5,.1.2.4.3.6.5,4.8,5.2,19.2,16.6,41.1,32.6,11.8,7.8,19,26,22,36.8l.3,1.2c1.5,5.6,14.4,54.8,17.4,61a9.67,9.67,0,0,0,.7,1.2,17,17,0,0,0,1.1-5l.9-5.5c1.9-10.8,6.5-36.4,6.5-58.5a111.37,111.37,0,0,0-.7-13.3c-1.6-13.6-4.3-30.6-10.2-42.1"/><path class="cls-1" d="M0,279.2C0,401,169.3,500,377.4,500c187.8,0,348.6-81.9,373.9-190.5L740,306.9C715.9,410.4,560,488.4,377.4,488.4c-201.7,0-365.8-93.9-365.8-209.2S175.7,70,377.4,70c52.7,0,103.5,6.3,151.2,18.7a470.31,470.31,0,0,1,79.2,28.1l4.9-10.5a475.35,475.35,0,0,0-81.1-28.8C482.9,64.9,431.1,58.4,377.4,58.4,169.3,58.4,0,157.5,0,279.2"/><polygon class="cls-2" points="111.9 313.8 111.9 223.4 171.4 223.4 171.4 239.2 129.5 239.2 129.5 260.4 165.2 260.4 165.2 276.1 129.5 276.1 129.5 298.1 171.4 298.1 171.4 313.8 111.9 313.8"/><path class="cls-2" d="M218.9,314.6a33.63,33.63,0,0,1-24.4-9.9c-9.1-9.1-8.9-20.4-8.9-36s-.3-26.9,8.9-36a33.47,33.47,0,0,1,24.4-9.9c16.9,0,30.1,9.6,33.3,28.6h-18c-1.8-7.2-6.3-12.8-15.2-12.8a14.64,14.64,0,0,0-11.3,4.7c-3.4,3.8-4.4,8.1-4.4,25.5s1,21.7,4.4,25.5A14.64,14.64,0,0,0,219,299c8.9,0,13.5-5.6,15.2-12.8h17.9c-3.1,18.7-16.5,28.4-33.2,28.4"/><path class="cls-2" d="M322.1,304.7c-6.3,6.3-14.1,9.9-24.4,9.9a33.21,33.21,0,0,1-24.5-9.9c-9.1-9.1-8.9-20.4-8.9-36s-.3-26.9,8.9-36c6.3-6.3,14.2-9.9,24.5-9.9a33,33,0,0,1,24.4,9.9c9.1,9.1,9,20.4,9,36s.1,26.8-9,36M309,243.2a14.7,14.7,0,0,0-11.3-4.8,14.93,14.93,0,0,0-11.4,4.8c-3.4,3.8-4.3,8-4.3,25.4s.9,21.6,4.3,25.4a14.93,14.93,0,0,0,11.4,4.8A14.7,14.7,0,0,0,309,294c3.4-3.8,4.4-8,4.4-25.4s-1-21.5-4.4-25.4"/><path class="cls-2" d="M379.3,314.6a33.63,33.63,0,0,1-24.4-9.9c-9.1-9.1-8.9-20.4-8.9-36s-.3-26.9,8.9-36a33.47,33.47,0,0,1,24.4-9.9c16.9,0,30.1,9.6,33.3,28.6H394.7c-1.8-7.2-6.3-12.8-15.2-12.8a14.64,14.64,0,0,0-11.3,4.7c-3.4,3.8-4.4,8.1-4.4,25.5s1,21.7,4.4,25.5a14.64,14.64,0,0,0,11.3,4.7c8.9,0,13.5-5.6,15.2-12.8h17.9c-3.2,18.7-16.5,28.4-33.3,28.4"/><polygon class="cls-2" points="427.8 313.8 427.8 223.4 487.3 223.4 487.3 239.2 445.4 239.2 445.4 260.4 481.1 260.4 481.1 276.1 445.4 276.1 445.4 298.1 487.3 298.1 487.3 313.8 427.8 313.8"/><path class="cls-2" d="M552.6,313.8l-17.6-36H522.2v36H504.6V223.4H540c18.4,0,29.3,12.6,29.3,27.7,0,12.7-7.7,20.6-16.5,23.7l20.2,39H552.6m-13.7-74.6H522.2v23.9h16.6c7.7,0,12.8-5,12.8-11.9.1-7.1-5-12-12.7-12"/><polygon class="cls-2" points="622.1 239.2 622.1 313.8 604.5 313.8 604.5 239.2 580.9 239.2 580.9 223.4 645.7 223.4 645.7 239.2 622.1 239.2"/><rect class="cls-2" x="115.2" y="343.2" width="10.2" height="52.4"/><polygon class="cls-2" points="168.7 395.7 147.9 363.5 147.9 395.7 137.7 395.7 137.7 343.2 146.8 343.2 167.6 375.3 167.6 343.2 177.8 343.2 177.8 395.7 168.7 395.7"/><path class="cls-2" d="M210.3,375.9H200.2v19.7H190V343.2h20.3c10.8,0,17.3,7.4,17.3,16.3s-6.5,16.4-17.3,16.4m-.5-23.5h-9.6v14.4h9.6c4.6,0,7.6-2.9,7.6-7.1,0-4.4-3-7.3-7.6-7.3"/><path class="cls-2" d="M254.7,396.1c-10.7,0-19.3-7.3-19.3-18.4V343.3h10.2v34.1c0,6,3.5,9.6,9.1,9.6s9.1-3.6,9.1-9.6V343.3H274v34.4c0,11.1-8.5,18.4-19.3,18.4"/><polygon class="cls-2" points="305.4 352.4 305.4 395.7 295.2 395.7 295.2 352.4 281.5 352.4 281.5 343.2 319.1 343.2 319.1 352.4 305.4 352.4"/><path class="cls-2" d="M341.9,396.1c-8,0-14-1.7-19.1-6.9l6.6-6.6c3.3,3.3,7.8,4.4,12.7,4.4,6,0,9.3-2.3,9.3-6.5a5.82,5.82,0,0,0-1.6-4.4c-1-1-2.2-1.5-4.6-1.8l-6.3-.9c-4.5-.7-7.8-2.1-10.2-4.3-2.5-2.5-3.7-5.9-3.7-10.3,0-9.3,6.9-15.9,18.3-15.9,7.2,0,12.4,1.8,16.9,6.1l-6.5,6.4c-3.3-3.2-7.3-3.6-10.7-3.6-5.4,0-8.1,3-8.1,6.6a5.27,5.27,0,0,0,1.5,3.8,9.31,9.31,0,0,0,4.9,2.1l6.2.9c4.8.7,7.8,2,10,4,2.8,2.7,4,6.5,4,11.1-.2,10.1-8.7,15.8-19.6,15.8"/><path class="cls-1" d="M138.3,198.1l-2.8-8.3H119.2l-2.8,8.3h-6.7l15.2-41.4H130l15.2,41.4Zm-10.9-32-6.5,18.4h12.7Z"/><path class="cls-1" d="M170.9,195.9a10.1,10.1,0,0,1-7.1,2.6c-3.1,0-5.6-.8-7.7-3.4V210h-5.9V168.6H156v3.1c2.2-2.7,4.6-3.5,7.8-3.5a10.18,10.18,0,0,1,7.2,2.6c3,3,3.3,8,3.3,12.4,0,4.6-.4,9.7-3.4,12.7m-8.7-22.3c-5.3,0-6.2,4.5-6.2,9.8s.8,9.8,6.2,9.8,6.1-4.6,6.1-9.8-.7-9.8-6.1-9.8"/><path class="cls-1" d="M203.1,195.9a10.1,10.1,0,0,1-7.1,2.6c-3.1,0-5.6-.8-7.7-3.4V210h-5.9V168.6h5.8v3.1c2.2-2.7,4.6-3.5,7.8-3.5a10.18,10.18,0,0,1,7.2,2.6c3,3,3.3,8,3.3,12.4-.1,4.6-.5,9.7-3.4,12.7m-8.7-22.3c-5.3,0-6.2,4.5-6.2,9.8s.8,9.8,6.2,9.8,6.1-4.6,6.1-9.8-.8-9.8-6.1-9.8"/><path class="cls-1" d="M230.6,175.6a5.56,5.56,0,0,0-4.4-2c-3.2,0-5.9,2.6-5.9,6.6v17.9h-5.9V168.6h5.8v3.2a9.64,9.64,0,0,1,7.8-3.5,8.85,8.85,0,0,1,7,2.8l-4.4,4.5"/><path class="cls-1" d="M257.7,195a12.81,12.81,0,0,1-17.6,0c-2.8-2.9-3.5-6.6-3.5-11.6s.7-8.7,3.5-11.6a12.81,12.81,0,0,1,17.6,0c2.8,2.9,3.5,6.6,3.5,11.6s-.7,8.7-3.5,11.6m-4.4-19.7a6,6,0,0,0-4.4-1.7,6,6,0,0,0-4.3,1.7c-1.8,1.8-2,4.9-2,8.1s.2,6.3,2,8.1a6,6,0,0,0,4.3,1.7,6.37,6.37,0,0,0,4.4-1.7c1.8-1.8,2-4.9,2-8.1s-.2-6.3-2-8.1"/><polygon class="cls-1" points="280.1 198.1 275.2 198.1 264.4 168.7 270.7 168.7 277.7 189.4 284.6 168.7 290.9 168.7 280.1 198.1"/><path class="cls-1" d="M299.8,185.1c0,5.1,2.7,8.2,7.5,8.2a8.56,8.56,0,0,0,7.1-3l3.8,3.5a13.89,13.89,0,0,1-11,4.6c-7.4,0-13.3-3.9-13.3-15.1,0-9.5,4.9-15,12.5-15,7.9,0,12.5,5.8,12.5,14.2v2.6H299.8m12.5-8.1a6,6,0,0,0-5.8-3.7,6.25,6.25,0,0,0-5.9,3.7,9.49,9.49,0,0,0-.8,4h13.3a11.34,11.34,0,0,0-.8-4"/><path class="cls-1" d="M343.7,198.1V195c-2.2,2.7-4.6,3.5-7.8,3.5a10.18,10.18,0,0,1-7.2-2.6c-3-3-3.3-8-3.3-12.5s.3-9.5,3.3-12.4a10.1,10.1,0,0,1,7.1-2.6c3.1,0,5.6.8,7.7,3.3V156.8h5.9v41.4h-5.7m-6.2-24.6c-5.3,0-6.2,4.5-6.2,9.8s.8,9.8,6.2,9.8,6.1-4.6,6.1-9.8-.8-9.8-6.1-9.8"/><path class="cls-1" d="M393.7,195.9a10.18,10.18,0,0,1-7.2,2.6c-3.2,0-5.6-.8-7.8-3.5v3.1h-5.8V156.7h5.9v14.9c2.2-2.6,4.6-3.3,7.7-3.3a9.93,9.93,0,0,1,7.1,2.6c3,3,3.3,8,3.3,12.4s-.3,9.6-3.2,12.6M385,173.6c-5.3,0-6.2,4.5-6.2,9.8s.8,9.8,6.2,9.8,6.1-4.6,6.1-9.8-.8-9.8-6.1-9.8"/><path class="cls-1" d="M414.2,204a11.62,11.62,0,0,1-2.1,3.7,8.29,8.29,0,0,1-6,2.2h-2.4v-5.4h1.5c2.5,0,3.4-.8,4.2-3.1l1.6-4.6-10.3-28.1H407l7,20.7,6.9-20.7h6.3l-13,35.3"/></g></g></svg>