<svg xmlns="http://www.w3.org/2000/svg" xmlns:xlink="http://www.w3.org/1999/xlink" viewBox="0 0 784.35 632.21"><defs><style>.cls-1{fill:none;}.cls-2{fill:#9aa282;}.cls-3{fill:#394920;}.cls-4{fill:#667449;}.cls-5{fill:#3c4621;}.cls-6{clip-path:url(#clip-path);}.cls-7{fill:#3b481f;}.cls-8{fill:#3c4920;}.cls-9{fill:#3e4a21;}.cls-10{fill:#3f4b22;}.cls-11{fill:#404c23;}.cls-12{fill:#414d24;}.cls-13{fill:#434e25;}.cls-14{fill:#444f26;}.cls-15{fill:#455027;}.cls-16{fill:#465128;}.cls-17{fill:#475229;}.cls-18{fill:#49532a;}.cls-19{fill:#4a542c;}.cls-20{fill:#4b552d;}.cls-21{fill:#4c562e;}.cls-22{fill:#4d572f;}.cls-23{fill:#4f5830;}.cls-24{fill:#505931;}.cls-25{fill:#515a32;}.cls-26{fill:#525b34;}.cls-27{fill:#535c35;}.cls-28{fill:#545d36;}.cls-29{fill:#565e37;}.cls-30{fill:#575f39;}.cls-31{fill:#58603a;}.cls-32{fill:#59613b;}.cls-33{fill:#5a613c;}.cls-34{fill:#5b623e;}.cls-35{fill:#5c633f;}.cls-36{fill:#5d6440;}.cls-37{fill:#5f6541;}.cls-38{fill:#606643;}.cls-39{fill:#616744;}.cls-40{fill:#626845;}.cls-41{fill:#636947;}.cls-42{fill:#646a48;}.cls-43{fill:#656b49;}.cls-44{fill:#676c4a;}.cls-45{fill:#686d4c;}.cls-46{fill:#696e4d;}.cls-47{fill:#6a6f4e;}.cls-48{fill:#6b704f;}.cls-49{fill:#6c7150;}.cls-50{fill:#6d7252;}.cls-51{fill:#6e7353;}.cls-52{fill:#707454;}.cls-53{fill:#717555;}.cls-54{fill:#727656;}.cls-55{fill:#737758;}.cls-56{fill:#747859;}.cls-57{fill:#75795a;}.cls-58{fill:#767a5b;}.cls-59{fill:#777b5c;}.cls-60{fill:#787c5e;}.cls-61{fill:#7a7d5f;}.cls-62{fill:#7b7e60;}.cls-63{fill:#7c7f61;}.cls-64{fill:#7d8062;}.cls-65{fill:#7e8164;}.cls-66{fill:#7f8265;}.cls-67{fill:#808366;}.cls-68{fill:#818467;}.cls-69{fill:#828568;}.cls-70{fill:#838669;}.cls-71{fill:#84876b;}.cls-72{fill:#85886c;}.cls-73{fill:#86896d;}.cls-74{fill:#878a6e;}.cls-75{fill:#898b6f;}.cls-76{fill:#8a8c70;}.cls-77{fill:#8b8d71;}.cls-78{fill:#8c8e73;}.cls-79{fill:#8d8f74;}.cls-80{fill:#8e9075;}.cls-81{fill:#8f9176;}.cls-82{fill:#909277;}.cls-83{fill:#919378;}.cls-84{fill:#92947a;}.cls-85{fill:#93957b;}.cls-86{fill:#94967c;}.cls-87{fill:#95977d;}.cls-88{fill:#96987e;}.cls-89{fill:#97987f;}.cls-90{fill:#989980;}.cls-91{fill:#999a82;}.cls-92{fill:#9a9b83;}.cls-93{fill:#9b9c84;}.cls-94{fill:#9c9d85;}.cls-95{fill:#9d9e86;}.cls-96{fill:#9e9f87;}.cls-97{fill:#9fa088;}.cls-98{fill:#a0a189;}.cls-99{fill:#a0a18a;}.cls-100{fill:#a1a28c;}.cls-101{fill:#a2a38d;}.cls-102{fill:#a3a48e;}.cls-103{fill:#a4a58f;}.cls-104{fill:#a5a690;}.cls-105{fill:#a6a791;}.cls-106{fill:#a7a892;}.cls-107{fill:#a8a893;}.cls-108{fill:#a9a994;}.cls-109{fill:#aaaa95;}.cls-110{fill:#abab96;}.cls-111{fill:#abac97;}.cls-112{fill:#acad98;}.cls-113{fill:#adad99;}.cls-114{fill:#aeae9a;}.cls-115{fill:#afaf9c;}.cls-116{fill:#b0b09d;}.cls-117{fill:#b0b19e;}.cls-118{fill:#b1b19f;}.cls-119{fill:#b2b29f;}.cls-120{fill:#b3b3a0;}.cls-121{fill:#b4b4a1;}.cls-122{fill:#b4b4a2;}.cls-123{fill:#b5b5a3;}.cls-124{fill:#b6b6a4;}.cls-125{fill:#b7b7a5;}.cls-126{fill:#b8b7a6;}.cls-127{fill:#b8b8a7;}.cls-128{fill:#b9b9a8;}.cls-129{fill:#babaa9;}.cls-130{fill:#babaaa;}.cls-131{fill:#bbbbab;}.cls-132{fill:#bcbcac;}.cls-133{fill:#bdbdad;}.cls-134{fill:#bebeae;}.cls-135{fill:#bfbfaf;}.cls-136{fill:#bfbfb0;}.cls-137{fill:#c0c0b1;}.cls-138{fill:#c1c1b2;}.cls-139{fill:#c2c2b3;}.cls-140{fill:#c3c2b4;}.cls-141{fill:#c3c3b5;}.cls-142{fill:#c4c4b6;}.cls-143{fill:#c5c4b6;}.cls-144{fill:#c5c5b7;}.cls-145{fill:#c6c6b8;}.cls-146{fill:#c7c6b9;}.cls-147{fill:#c7c7b9;}.cls-148{fill:#c8c7ba;}.cls-149{fill:#c8c8bb;}.cls-150{fill:#c9c9bc;}.cls-151{fill:#cac9bc;}.cls-152{fill:#cacabd;}.cls-153{fill:#cbcabe;}.cls-154{fill:#cbcbbe;}.cls-155{fill:#cccbbf;}.cls-156{fill:#ccccc0;}.cls-157{fill:#cdcdc0;}.cls-158{fill:#cecdc1;}.cls-159{fill:#cecec2;}.cls-160{fill:#cfcec2;}.cls-161{fill:#cfcec3;}.cls-162{fill:#cfcfc3;}.cls-163{fill:#d0cfc4;}.cls-164{fill:#d0d0c5;}.cls-165{fill:#d1d0c5;}.cls-166{fill:#d1d1c6;}.cls-167{fill:#d2d1c6;}.cls-168{fill:#d2d2c7;}.cls-169{fill:#d3d2c7;}.cls-170{fill:#d3d2c8;}.cls-171{fill:#d4d3c8;}.cls-172{fill:#d4d3c9;}.cls-173{fill:#d4d4c9;}.cls-174{fill:#d5d4ca;}.cls-175{fill:#d6d5cb;}.cls-176{fill:#d6d6cc;}.cls-177{fill:#d7d6cc;}.cls-178{fill:#d7d6cd;}.cls-179{fill:#d7d7cd;}.cls-180{fill:#d8d7ce;}.cls-181{fill:#d8d8ce;}.cls-182{fill:#d9d8cf;}.cls-183{fill:#d9d9d0;}.cls-184{fill:#dad9d0;}.cls-185{fill:#dad9d1;}.cls-186{fill:#dadad1;}.cls-187{fill:#dbdad1;}.cls-188{fill:#dbdad2;}.cls-189{fill:#dbdbd2;}.cls-190{fill:#dcdbd2;}.cls-191{fill:#dcdbd3;}.cls-192{fill:#dcdcd3;}.cls-193{fill:#dcdcd4;}.cls-194{fill:#dddcd4;}.cls-195{fill:#ddddd5;}.cls-196{fill:#deddd5;}.cls-197{fill:#deddd6;}.cls-198{fill:#deded6;}.cls-199{fill:#dfded6;}.cls-200{fill:#dfded7;}.cls-201{fill:#dfdfd7;}.cls-202{fill:#e0dfd8;}.cls-203{fill:#e1e0d9;}.cls-204{fill:#e2e1da;}.cls-205{fill:#e2e2db;}.cls-206{fill:#e3e2dc;}.cls-207{fill:#e4e3dd;}.cls-208{fill:#e5e4de;}.cls-209{fill:#e6e5e0;}.cls-210{fill:#e7e7e1;}.cls-211{fill:#e9e8e3;}.cls-212{fill:#eaeae5;}.cls-213{fill:#ecece7;}.cls-214{fill:#eeeeea;}.cls-215{fill:#f0f0ed;}.cls-216{fill:#f3f3f0;}.cls-217{fill:#f6f6f4;}.cls-218{fill:#fafaf9;}.cls-219{fill:#fff;}.cls-220{fill:#ced4c0;}.cls-221{fill:#dbe5cc;}.cls-222{fill:#fffffc;}</style><clipPath id="clip-path"><path class="cls-1" d="M395.65,83.33c-118.29,0-214.18,96.82-214.18,216.26s95.89,216.26,214.18,216.26S609.84,419,609.84,299.59,514,83.33,395.65,83.33Zm-4,416.62C280,500,189.43,409.4,189.43,297.69S280,95.44,391.68,95.44,593.94,186,593.94,297.69,503.39,500,391.68,500Z"/></clipPath></defs><title>GMP</title><g id="Layer_2" data-name="Layer 2"><g id="Layer_1-2" data-name="Layer 1"><path class="cls-2" d="M359.76,598C235.34,575.3,147.57,523.2,98.88,443.12c-38.56-63.41-44.69-132.82-43-179.89,1.78-51,12.82-87.47,12.94-87.83l2.86.88c-.11.36-11,36.56-12.81,87.16-1.62,46.63,4.47,115.4,42.63,178.15C149.69,520.88,236.77,572.51,360.3,595Z"/><path class="cls-2" d="M67.58,181.25s-14.35-38,28.25-67c0,0,13.71,41.78-29,70"/><path class="cls-2" d="M21.37,158.29s37.17,17.69,39,61.47c0,0,15.78-34.62,50.15-41.6s-18.59,49.58-51,47.11C19.22,222.2,21.37,158.29,21.37,158.29Z"/><path class="cls-2" d="M8.06,218s38,7.13,47.62,49.89c0,0,11.08-33.26,43.64-46.28s-9.42,52.1-41.74,55.47C17.37,281.23,8.06,218,8.06,218Z"/><path class="cls-2" d="M0,277.24s39.16,6.92,58,46.51c0,0,3.25-31.22,32.15-51.08S92.9,321,61.3,328.58C21.35,338.19,0,277.24,0,277.24Z"/><path class="cls-2" d="M7,337.68s39.7,2.19,63.08,39.26c0,0-.5-31.38,25.83-54.54S104.45,370,74,381.34C35.46,395.64,7,337.68,7,337.68Z"/><path class="cls-2" d="M22.06,397.68s36.75-5.95,66.32,26.4c0,0-.63-27.63,18.49-57.18s16.83,45.38-11.15,61.9C60.33,449.69,22.06,397.68,22.06,397.68Z"/><path class="cls-2" d="M47.09,456.48s39.74-19.09,77.84,18.27c0,0-9.2-23.65.57-62.89,8.48-34,24.23,41.89-.57,62.89C93.57,501.3,47.09,456.48,47.09,456.48Z"/><path class="cls-2" d="M80.35,509.48s35.16-26.61,79.92,2.44c0,0-13.72-21.35-11.94-61.75,1.55-35,32.08,36.24,11.94,61.75C134.82,544.17,80.35,509.48,80.35,509.48Z"/><path class="cls-2" d="M128.58,550.55s32-30.31,79.7-6.37c0,0-16-19.71-18.66-60.06-2.32-35,35.87,32.49,18.66,60.06C186.53,579,128.58,550.55,128.58,550.55Z"/><path class="cls-2" d="M173,587.74s36.57-35.29,79.21-25.36c0,0-20.66-10.85-29.94-50.21-8-34.14,40.73,26.15,28.29,56.17C234.79,606.3,173,587.74,173,587.74Z"/><path class="cls-2" d="M224.43,616.3s34.6-44.47,77.24-34.53c0,0-20.73-10.3-30-49.65-8-34.14,40.73,26.14,28.29,56.17C284.23,626.25,224.43,616.3,224.43,616.3Z"/><path class="cls-2" d="M282.79,631s34.6-44.46,77.24-34.53c11.56,8.67-14-5.23-30-49.65-11.89-33,40.73,26.14,28.29,56.17C342.59,641,282.79,631,282.79,631Z"/><path class="cls-2" d="M424.59,598l-.54-3c123.54-22.52,210.63-74.15,258.86-153.45,38.17-62.78,44.24-131.58,42.61-178.23-1.77-50.58-12.7-86.7-12.81-87.06l2.87-.88c.11.36,11.15,36.87,12.94,87.83,1.64,47.07-4.49,116.48-43,179.89C636.78,523.2,549,575.3,424.59,598Z"/><path class="cls-2" d="M716.77,181.25s14.35-38-28.25-67c0,0-13.71,41.78,29,70"/><path class="cls-2" d="M763,158.29S725.81,176,724,219.76c0,0-15.78-34.62-50.15-41.6s18.59,49.58,51,47.11C765.13,222.2,763,158.29,763,158.29Z"/><path class="cls-2" d="M776.29,218s-38,7.13-47.62,49.89c0,0-11.07-33.26-43.64-46.28s9.42,52.1,41.74,55.47C767,281.23,776.29,218,776.29,218Z"/><path class="cls-2" d="M784.35,277.24s-39.15,6.92-57.94,46.51c0,0-3.25-31.22-32.16-51.08s-2.79,48.32,28.8,55.91C763,338.19,784.35,277.24,784.35,277.24Z"/><path class="cls-2" d="M777.35,337.68s-39.7,2.19-63.08,39.26c0,0,.5-31.38-25.83-54.54S679.9,370,710.37,381.34C748.89,395.64,777.35,337.68,777.35,337.68Z"/><path class="cls-2" d="M762.29,397.68s-36.75-5.95-66.32,26.4c0,0,.64-27.63-18.48-57.18s-16.84,45.38,11.15,61.9C724,449.69,762.29,397.68,762.29,397.68Z"/><path class="cls-2" d="M737.26,456.48s-39.74-19.09-77.84,18.27c0,0,9.21-23.65-.57-62.89-8.48-34-24.23,41.89.57,62.89C690.78,501.3,737.26,456.48,737.26,456.48Z"/><path class="cls-2" d="M704,509.48s-35.15-26.61-79.92,2.44c0,0,13.72-21.35,11.94-61.75-1.55-35-32.07,36.24-11.94,61.75C649.54,544.17,704,509.48,704,509.48Z"/><path class="cls-2" d="M655.78,550.55s-32-30.31-79.71-6.37c0,0,16-19.71,18.66-60.06,2.32-35-35.86,32.49-18.66,60.06C597.82,579,655.78,550.55,655.78,550.55Z"/><path class="cls-2" d="M611.41,587.74s-36.58-35.29-79.22-25.36c0,0,20.66-10.85,29.94-50.21,8-34.14-40.73,26.15-28.29,56.17C549.56,606.3,611.41,587.74,611.41,587.74Z"/><path class="cls-2" d="M559.92,616.3s-34.6-44.47-77.24-34.53c0,0,20.74-10.3,30-49.65,8-34.14-40.72,26.14-28.29,56.17C500.12,626.25,559.92,616.3,559.92,616.3Z"/><path class="cls-2" d="M501.56,631S467,586.57,424.32,596.5c-11.56,8.67,14-5.23,30-49.65,11.9-33-40.72,26.14-28.29,56.17C441.76,641,501.56,631,501.56,631Z"/><rect class="cls-3" x="169.49" y="159.38" width="440.35" height="301.22"/><path class="cls-4" d="M212.64,189.31H596.71S540.32,65.86,415.34,65.86,221.78,139,212.64,189.31Z"/><path class="cls-4" d="M589.21,445.72H205.14s56.39,83.85,181.36,83.85S580.06,479.88,589.21,445.72Z"/><path class="cls-5" d="M395.65,1C230.77,1,97.11,134.7,97.11,299.59S230.77,596.5,395.65,596.5s301-130.6,296-295.41C686.69,135.93,560.54,1,395.65,1Zm0,514.81c-115.29,0-208.76-96.18-208.76-214.83S280.36,86.2,395.65,86.2c93.16,0,172.06,62.8,198.93,149.49a220.06,220.06,0,0,1,9.78,60.71q.06,2.31.06,4.62C604.42,419.67,511,515.85,395.65,515.85Z"/><g class="cls-6"><polygon class="cls-7" points="295.43 95.44 189.43 201.44 189.43 95.44 295.43 95.44"/><polygon class="cls-7" points="296.84 95.44 189.43 202.85 189.43 201.44 295.43 95.44 296.84 95.44"/><polygon class="cls-8" points="298.25 95.44 189.43 204.26 189.43 202.85 296.84 95.44 298.25 95.44"/><polygon class="cls-9" points="299.65 95.44 189.43 205.66 189.43 204.26 298.25 95.44 299.65 95.44"/><polygon class="cls-10" points="301.06 95.44 189.43 207.07 189.43 205.66 299.65 95.44 301.06 95.44"/><polygon class="cls-11" points="302.47 95.44 189.43 208.48 189.43 207.07 301.06 95.44 302.47 95.44"/><polygon class="cls-12" points="303.88 95.44 189.43 209.89 189.43 208.48 302.47 95.44 303.88 95.44"/><polygon class="cls-13" points="305.29 95.44 189.43 211.29 189.43 209.89 303.88 95.44 305.29 95.44"/><polygon class="cls-14" points="306.69 95.44 189.43 212.7 189.43 211.29 305.29 95.44 306.69 95.44"/><polygon class="cls-15" points="308.1 95.44 189.43 214.11 189.43 212.7 306.69 95.44 308.1 95.44"/><polygon class="cls-16" points="309.51 95.44 189.43 215.52 189.43 214.11 308.1 95.44 309.51 95.44"/><polygon class="cls-17" points="310.92 95.44 189.43 216.93 189.43 215.52 309.51 95.44 310.92 95.44"/><polygon class="cls-18" points="312.32 95.44 189.43 218.33 189.43 216.93 310.92 95.44 312.32 95.44"/><polygon class="cls-19" points="313.73 95.44 189.43 219.74 189.43 218.33 312.32 95.44 313.73 95.44"/><polygon class="cls-20" points="315.14 95.44 189.43 221.15 189.43 219.74 313.73 95.44 315.14 95.44"/><polygon class="cls-21" points="316.55 95.44 189.43 222.56 189.43 221.15 315.14 95.44 316.55 95.44"/><polygon class="cls-22" points="317.95 95.44 189.43 223.96 189.43 222.56 316.55 95.44 317.95 95.44"/><polygon class="cls-23" points="319.36 95.44 189.43 225.37 189.43 223.96 317.95 95.44 319.36 95.44"/><polygon class="cls-24" points="320.77 95.44 189.43 226.78 189.43 225.37 319.36 95.44 320.77 95.44"/><polygon class="cls-25" points="322.18 95.44 189.43 228.19 189.43 226.78 320.77 95.44 322.18 95.44"/><polygon class="cls-26" points="323.59 95.44 189.43 229.59 189.43 228.19 322.18 95.44 323.59 95.44"/><polygon class="cls-27" points="324.99 95.44 189.43 231 189.43 229.59 323.59 95.44 324.99 95.44"/><polygon class="cls-28" points="326.4 95.44 189.43 232.41 189.43 231 324.99 95.44 326.4 95.44"/><polygon class="cls-29" points="327.81 95.44 189.43 233.82 189.43 232.41 326.4 95.44 327.81 95.44"/><polygon class="cls-30" points="329.22 95.44 189.43 235.23 189.43 233.82 327.81 95.44 329.22 95.44"/><polygon class="cls-31" points="330.62 95.44 189.43 236.63 189.43 235.23 329.22 95.44 330.62 95.44"/><polygon class="cls-32" points="332.03 95.44 189.43 238.04 189.43 236.63 330.62 95.44 332.03 95.44"/><polygon class="cls-33" points="333.44 95.44 189.43 239.45 189.43 238.04 332.03 95.44 333.44 95.44"/><polygon class="cls-34" points="334.85 95.44 189.43 240.86 189.43 239.45 333.44 95.44 334.85 95.44"/><polygon class="cls-35" points="336.25 95.44 189.43 242.26 189.43 240.86 334.85 95.44 336.25 95.44"/><polygon class="cls-36" points="337.66 95.44 189.43 243.67 189.43 242.26 336.25 95.44 337.66 95.44"/><polygon class="cls-37" points="339.07 95.44 189.43 245.08 189.43 243.67 337.66 95.44 339.07 95.44"/><polygon class="cls-38" points="340.48 95.44 189.43 246.49 189.43 245.08 339.07 95.44 340.48 95.44"/><polygon class="cls-39" points="341.89 95.44 189.43 247.9 189.43 246.49 340.48 95.44 341.89 95.44"/><polygon class="cls-40" points="343.29 95.44 189.43 249.3 189.43 247.9 341.89 95.44 343.29 95.44"/><polygon class="cls-41" points="344.7 95.44 189.43 250.71 189.43 249.3 343.29 95.44 344.7 95.44"/><polygon class="cls-42" points="346.11 95.44 189.43 252.12 189.43 250.71 344.7 95.44 346.11 95.44"/><polygon class="cls-43" points="347.52 95.44 189.43 253.53 189.43 252.12 346.11 95.44 347.52 95.44"/><polygon class="cls-44" points="348.92 95.44 189.43 254.93 189.43 253.53 347.52 95.44 348.92 95.44"/><polygon class="cls-45" points="350.33 95.44 189.43 256.34 189.43 254.93 348.92 95.44 350.33 95.44"/><polygon class="cls-46" points="351.74 95.44 189.43 257.75 189.43 256.34 350.33 95.44 351.74 95.44"/><polygon class="cls-47" points="353.15 95.44 189.43 259.16 189.43 257.75 351.74 95.44 353.15 95.44"/><polygon class="cls-48" points="354.56 95.44 189.43 260.56 189.43 259.16 353.15 95.44 354.56 95.44"/><polygon class="cls-49" points="355.96 95.44 189.43 261.97 189.43 260.56 354.56 95.44 355.96 95.44"/><polygon class="cls-50" points="357.37 95.44 189.43 263.38 189.43 261.97 355.96 95.44 357.37 95.44"/><polygon class="cls-51" points="358.78 95.44 189.43 264.79 189.43 263.38 357.37 95.44 358.78 95.44"/><polygon class="cls-52" points="360.19 95.44 189.43 266.19 189.43 264.79 358.78 95.44 360.19 95.44"/><polygon class="cls-53" points="361.59 95.44 189.43 267.6 189.43 266.19 360.19 95.44 361.59 95.44"/><polygon class="cls-54" points="363 95.44 189.43 269.01 189.43 267.6 361.59 95.44 363 95.44"/><polygon class="cls-55" points="364.41 95.44 189.43 270.42 189.43 269.01 363 95.44 364.41 95.44"/><polygon class="cls-56" points="365.82 95.44 189.43 271.82 189.43 270.42 364.41 95.44 365.82 95.44"/><polygon class="cls-57" points="367.22 95.44 189.43 273.23 189.43 271.82 365.82 95.44 367.22 95.44"/><polygon class="cls-58" points="368.63 95.44 189.43 274.64 189.43 273.23 367.22 95.44 368.63 95.44"/><polygon class="cls-59" points="370.04 95.44 189.43 276.05 189.43 274.64 368.63 95.44 370.04 95.44"/><polygon class="cls-60" points="371.45 95.44 189.43 277.46 189.43 276.05 370.04 95.44 371.45 95.44"/><polygon class="cls-61" points="372.86 95.44 189.43 278.86 189.43 277.46 371.45 95.44 372.86 95.44"/><polygon class="cls-62" points="374.26 95.44 189.43 280.27 189.43 278.86 372.86 95.44 374.26 95.44"/><polygon class="cls-63" points="375.67 95.44 189.43 281.68 189.43 280.27 374.26 95.44 375.67 95.44"/><polygon class="cls-64" points="377.08 95.44 189.43 283.09 189.43 281.68 375.67 95.44 377.08 95.44"/><polygon class="cls-65" points="378.49 95.44 189.43 284.49 189.43 283.09 377.08 95.44 378.49 95.44"/><polygon class="cls-66" points="379.89 95.44 189.43 285.9 189.43 284.49 378.49 95.44 379.89 95.44"/><polygon class="cls-67" points="381.3 95.44 189.43 287.31 189.43 285.9 379.89 95.44 381.3 95.44"/><polygon class="cls-68" points="382.71 95.44 189.43 288.72 189.43 287.31 381.3 95.44 382.71 95.44"/><polygon class="cls-69" points="384.12 95.44 189.43 290.13 189.43 288.72 382.71 95.44 384.12 95.44"/><polygon class="cls-70" points="385.52 95.44 189.43 291.53 189.43 290.13 384.12 95.44 385.52 95.44"/><polygon class="cls-71" points="386.93 95.44 189.43 292.94 189.43 291.53 385.52 95.44 386.93 95.44"/><polygon class="cls-72" points="388.34 95.44 189.43 294.35 189.43 292.94 386.93 95.44 388.34 95.44"/><polygon class="cls-73" points="389.75 95.44 189.43 295.76 189.43 294.35 388.34 95.44 389.75 95.44"/><polygon class="cls-74" points="391.15 95.44 189.43 297.16 189.43 295.76 389.75 95.44 391.15 95.44"/><polygon class="cls-75" points="392.56 95.44 189.43 298.57 189.43 297.16 391.15 95.44 392.56 95.44"/><polygon class="cls-76" points="393.97 95.44 189.43 299.98 189.43 298.57 392.56 95.44 393.97 95.44"/><polygon class="cls-77" points="395.38 95.44 189.43 301.39 189.43 299.98 393.97 95.44 395.38 95.44"/><polygon class="cls-78" points="396.79 95.44 189.43 302.79 189.43 301.39 395.38 95.44 396.79 95.44"/><polygon class="cls-79" points="398.19 95.44 189.43 304.2 189.43 302.79 396.79 95.44 398.19 95.44"/><polygon class="cls-80" points="399.6 95.44 189.43 305.61 189.43 304.2 398.19 95.44 399.6 95.44"/><polygon class="cls-81" points="401.01 95.44 189.43 307.02 189.43 305.61 399.6 95.44 401.01 95.44"/><polygon class="cls-82" points="402.42 95.44 189.43 308.43 189.43 307.02 401.01 95.44 402.42 95.44"/><polygon class="cls-83" points="403.82 95.44 189.43 309.83 189.43 308.43 402.42 95.44 403.82 95.44"/><polygon class="cls-84" points="405.23 95.44 189.43 311.24 189.43 309.83 403.82 95.44 405.23 95.44"/><polygon class="cls-85" points="406.64 95.44 189.43 312.65 189.43 311.24 405.23 95.44 406.64 95.44"/><polygon class="cls-86" points="408.05 95.44 189.43 314.06 189.43 312.65 406.64 95.44 408.05 95.44"/><polygon class="cls-87" points="409.45 95.44 189.43 315.46 189.43 314.06 408.05 95.44 409.45 95.44"/><polygon class="cls-88" points="410.86 95.44 189.43 316.87 189.43 315.46 409.45 95.44 410.86 95.44"/><polygon class="cls-89" points="412.27 95.44 189.43 318.28 189.43 316.87 410.86 95.44 412.27 95.44"/><polygon class="cls-90" points="413.68 95.44 189.43 319.69 189.43 318.28 412.27 95.44 413.68 95.44"/><polygon class="cls-91" points="415.08 95.44 189.43 321.09 189.43 319.69 413.68 95.44 415.08 95.44"/><polygon class="cls-92" points="416.49 95.44 189.43 322.5 189.43 321.09 415.08 95.44 416.49 95.44"/><polygon class="cls-93" points="417.9 95.44 189.43 323.91 189.43 322.5 416.49 95.44 417.9 95.44"/><polygon class="cls-94" points="419.31 95.44 189.43 325.32 189.43 323.91 417.9 95.44 419.31 95.44"/><polygon class="cls-95" points="420.71 95.44 189.43 326.73 189.43 325.32 419.31 95.44 420.71 95.44"/><polygon class="cls-96" points="422.12 95.44 189.43 328.13 189.43 326.73 420.71 95.44 422.12 95.44"/><polygon class="cls-97" points="423.53 95.44 189.43 329.54 189.43 328.13 422.12 95.44 423.53 95.44"/><polygon class="cls-98" points="424.94 95.44 189.43 330.95 189.43 329.54 423.53 95.44 424.94 95.44"/><polygon class="cls-99" points="426.35 95.44 189.43 332.36 189.43 330.95 424.94 95.44 426.35 95.44"/><polygon class="cls-100" points="427.75 95.44 189.43 333.76 189.43 332.36 426.35 95.44 427.75 95.44"/><polygon class="cls-101" points="429.16 95.44 189.43 335.17 189.43 333.76 427.75 95.44 429.16 95.44"/><polygon class="cls-102" points="430.57 95.44 189.43 336.58 189.43 335.17 429.16 95.44 430.57 95.44"/><polygon class="cls-103" points="431.98 95.44 189.43 337.99 189.43 336.58 430.57 95.44 431.98 95.44"/><polygon class="cls-104" points="433.38 95.44 189.43 339.39 189.43 337.99 431.98 95.44 433.38 95.44"/><polygon class="cls-105" points="434.79 95.44 189.43 340.8 189.43 339.39 433.38 95.44 434.79 95.44"/><polygon class="cls-106" points="436.2 95.44 189.43 342.21 189.43 340.8 434.79 95.44 436.2 95.44"/><polygon class="cls-107" points="437.61 95.44 189.43 343.62 189.43 342.21 436.2 95.44 437.61 95.44"/><polygon class="cls-108" points="439.01 95.44 189.43 345.02 189.43 343.62 437.61 95.44 439.01 95.44"/><polygon class="cls-109" points="440.42 95.44 189.43 346.43 189.43 345.02 439.01 95.44 440.42 95.44"/><polygon class="cls-110" points="441.83 95.44 189.43 347.84 189.43 346.43 440.42 95.44 441.83 95.44"/><polygon class="cls-111" points="443.24 95.44 189.43 349.25 189.43 347.84 441.83 95.44 443.24 95.44"/><polygon class="cls-112" points="444.65 95.44 189.43 350.65 189.43 349.25 443.24 95.44 444.65 95.44"/><polygon class="cls-113" points="446.05 95.44 189.43 352.06 189.43 350.65 444.65 95.44 446.05 95.44"/><polygon class="cls-114" points="447.46 95.44 189.43 353.47 189.43 352.06 446.05 95.44 447.46 95.44"/><polygon class="cls-115" points="448.87 95.44 189.43 354.88 189.43 353.47 447.46 95.44 448.87 95.44"/><polygon class="cls-116" points="450.28 95.44 189.43 356.29 189.43 354.88 448.87 95.44 450.28 95.44"/><polygon class="cls-117" points="451.68 95.44 189.43 357.69 189.43 356.29 450.28 95.44 451.68 95.44"/><polygon class="cls-118" points="453.09 95.44 189.43 359.1 189.43 357.69 451.68 95.44 453.09 95.44"/><polygon class="cls-119" points="454.5 95.44 189.43 360.51 189.43 359.1 453.09 95.44 454.5 95.44"/><polygon class="cls-120" points="455.91 95.44 189.43 361.92 189.43 360.51 454.5 95.44 455.91 95.44"/><polygon class="cls-121" points="457.31 95.44 189.43 363.32 189.43 361.92 455.91 95.44 457.31 95.44"/><polygon class="cls-122" points="458.72 95.44 189.43 364.73 189.43 363.32 457.31 95.44 458.72 95.44"/><polygon class="cls-123" points="460.13 95.44 189.43 366.14 189.43 364.73 458.72 95.44 460.13 95.44"/><polygon class="cls-124" points="461.54 95.44 189.43 367.55 189.43 366.14 460.13 95.44 461.54 95.44"/><polygon class="cls-125" points="462.95 95.44 189.43 368.95 189.43 367.55 461.54 95.44 462.95 95.44"/><polygon class="cls-126" points="464.35 95.44 189.43 370.36 189.43 368.95 462.95 95.44 464.35 95.44"/><polygon class="cls-127" points="465.76 95.44 189.43 371.77 189.43 370.36 464.35 95.44 465.76 95.44"/><polygon class="cls-128" points="467.17 95.44 189.43 373.18 189.43 371.77 465.76 95.44 467.17 95.44"/><polygon class="cls-129" points="468.58 95.44 189.43 374.59 189.43 373.18 467.17 95.44 468.58 95.44"/><polygon class="cls-130" points="469.98 95.44 189.43 375.99 189.43 374.59 468.58 95.44 469.98 95.44"/><polygon class="cls-131" points="471.39 95.44 189.43 377.4 189.43 375.99 469.98 95.44 471.39 95.44"/><polygon class="cls-132" points="472.8 95.44 189.43 378.81 189.43 377.4 471.39 95.44 472.8 95.44"/><polygon class="cls-133" points="474.21 95.44 189.43 380.22 189.43 378.81 472.8 95.44 474.21 95.44"/><polygon class="cls-133" points="475.62 95.44 189.43 381.62 189.43 380.22 474.21 95.44 475.62 95.44"/><polygon class="cls-134" points="477.02 95.44 189.43 383.03 189.43 381.62 475.62 95.44 477.02 95.44"/><polygon class="cls-135" points="478.43 95.44 189.43 384.44 189.43 383.03 477.02 95.44 478.43 95.44"/><polygon class="cls-136" points="479.84 95.44 189.43 385.85 189.43 384.44 478.43 95.44 479.84 95.44"/><polygon class="cls-137" points="481.25 95.44 189.43 387.25 189.43 385.85 479.84 95.44 481.25 95.44"/><polygon class="cls-138" points="482.65 95.44 189.43 388.66 189.43 387.25 481.25 95.44 482.65 95.44"/><polygon class="cls-138" points="484.06 95.44 189.43 390.07 189.43 388.66 482.65 95.44 484.06 95.44"/><polygon class="cls-139" points="485.47 95.44 189.43 391.48 189.43 390.07 484.06 95.44 485.47 95.44"/><polygon class="cls-140" points="486.88 95.44 189.43 392.88 189.43 391.48 485.47 95.44 486.88 95.44"/><polygon class="cls-141" points="488.28 95.44 189.43 394.29 189.43 392.88 486.88 95.44 488.28 95.44"/><polygon class="cls-142" points="489.69 95.44 189.43 395.7 189.43 394.29 488.28 95.44 489.69 95.44"/><polygon class="cls-143" points="491.1 95.44 189.43 397.11 189.43 395.7 489.69 95.44 491.1 95.44"/><polygon class="cls-144" points="492.51 95.44 189.43 398.52 189.43 397.11 491.1 95.44 492.51 95.44"/><polygon class="cls-145" points="493.92 95.44 189.43 399.92 189.43 398.52 492.51 95.44 493.92 95.44"/><polygon class="cls-146" points="495.32 95.44 189.43 401.33 189.43 399.92 493.92 95.44 495.32 95.44"/><polygon class="cls-147" points="496.73 95.44 189.43 402.74 189.43 401.33 495.32 95.44 496.73 95.44"/><polygon class="cls-148" points="498.14 95.44 189.43 404.15 189.43 402.74 496.73 95.44 498.14 95.44"/><polygon class="cls-149" points="499.55 95.44 189.43 405.56 189.43 404.15 498.14 95.44 499.55 95.44"/><polygon class="cls-150" points="500.95 95.44 189.43 406.96 189.43 405.56 499.55 95.44 500.95 95.44"/><polygon class="cls-151" points="502.36 95.44 189.43 408.37 189.43 406.96 500.95 95.44 502.36 95.44"/><polygon class="cls-152" points="503.77 95.44 189.43 409.78 189.43 408.37 502.36 95.44 503.77 95.44"/><polygon class="cls-153" points="505.18 95.44 189.43 411.19 189.43 409.78 503.77 95.44 505.18 95.44"/><polygon class="cls-154" points="506.22 95.44 506.4 95.62 189.61 412.41 189.43 412.23 189.43 411.19 505.18 95.44 506.22 95.44"/><rect class="cls-155" x="124.35" y="253.87" width="448.01" height="1" transform="translate(-77.83 320.83) rotate(-45)"/><rect class="cls-156" x="125.06" y="254.57" width="448.01" height="1" transform="translate(-78.12 321.53) rotate(-45)"/><rect class="cls-157" x="125.76" y="255.28" width="448.01" height="1" transform="translate(-78.42 322.24) rotate(-45)"/><rect class="cls-158" x="126.46" y="255.98" width="448.01" height="1" transform="translate(-78.71 322.94) rotate(-45)"/><rect class="cls-159" x="127.17" y="256.68" width="448.01" height="1" transform="translate(-79 323.64) rotate(-45)"/><rect class="cls-160" x="127.87" y="257.39" width="448.01" height="1" transform="translate(-79.29 324.35) rotate(-45)"/><rect class="cls-161" x="128.58" y="258.09" width="448.01" height="1" transform="translate(-79.58 325.05) rotate(-45)"/><rect class="cls-162" x="129.28" y="258.8" width="448.01" height="1" transform="translate(-79.87 325.75) rotate(-45)"/><rect class="cls-163" x="129.98" y="259.5" width="448.01" height="1" transform="translate(-80.16 326.46) rotate(-45)"/><rect class="cls-164" x="130.69" y="260.2" width="448.01" height="1" transform="translate(-80.46 327.16) rotate(-45)"/><rect class="cls-165" x="131.39" y="260.91" width="448.01" height="1" transform="translate(-80.75 327.87) rotate(-45)"/><rect class="cls-166" x="132.09" y="261.61" width="448.01" height="1" transform="translate(-81.04 328.57) rotate(-45)"/><rect class="cls-167" x="132.8" y="262.31" width="448.01" height="1" transform="translate(-81.33 329.27) rotate(-45)"/><rect class="cls-168" x="133.5" y="263.02" width="448.01" height="1" transform="translate(-81.62 329.98) rotate(-45)"/><rect class="cls-169" x="134.21" y="263.72" width="448.01" height="1" transform="translate(-81.91 330.68) rotate(-45)"/><rect class="cls-170" x="134.91" y="264.43" width="448.01" height="1" transform="translate(-82.21 331.39) rotate(-45)"/><rect class="cls-171" x="135.61" y="265.13" width="448.01" height="1" transform="translate(-82.5 332.09) rotate(-45)"/><rect class="cls-172" x="136.32" y="265.83" width="448.01" height="1" transform="translate(-82.79 332.79) rotate(-45)"/><rect class="cls-173" x="137.02" y="266.54" width="448.01" height="1" transform="translate(-83.08 333.5) rotate(-45)"/><rect class="cls-174" x="137.73" y="267.24" width="448.01" height="1" transform="translate(-83.37 334.2) rotate(-45)"/><rect class="cls-174" x="138.43" y="267.95" width="448.01" height="1" transform="translate(-83.66 334.9) rotate(-45)"/><rect class="cls-175" x="139.13" y="268.65" width="448.01" height="1" transform="translate(-83.95 335.61) rotate(-45)"/><rect class="cls-175" x="139.84" y="269.35" width="448.01" height="1" transform="translate(-84.25 336.31) rotate(-45)"/><rect class="cls-176" x="140.54" y="270.06" width="448.01" height="1" transform="translate(-84.54 337.02) rotate(-45)"/><rect class="cls-177" x="141.24" y="270.76" width="448.01" height="1" transform="translate(-84.83 337.72) rotate(-45)"/><rect class="cls-178" x="141.95" y="271.46" width="448.01" height="1" transform="translate(-85.12 338.42) rotate(-45)"/><rect class="cls-179" x="142.65" y="272.17" width="448.01" height="1" transform="translate(-85.41 339.13) rotate(-45)"/><rect class="cls-180" x="143.36" y="272.87" width="448.01" height="1" transform="translate(-85.7 339.83) rotate(-45)"/><rect class="cls-180" x="144.06" y="273.58" width="448.01" height="1" transform="translate(-86 340.53) rotate(-45)"/><rect class="cls-181" x="144.76" y="274.28" width="448.01" height="1" transform="translate(-86.29 341.24) rotate(-45)"/><rect class="cls-182" x="145.47" y="274.98" width="448.01" height="1" transform="translate(-86.58 341.94) rotate(-45)"/><rect class="cls-182" x="146.17" y="275.69" width="448.01" height="1" transform="translate(-86.87 342.65) rotate(-45)"/><rect class="cls-183" x="146.88" y="276.39" width="448.01" height="1" transform="translate(-87.16 343.35) rotate(-45)"/><rect class="cls-184" x="147.58" y="277.09" width="448.01" height="1" transform="translate(-87.45 344.05) rotate(-45)"/><rect class="cls-184" x="148.28" y="277.8" width="448.01" height="1" transform="translate(-87.74 344.76) rotate(-45)"/><rect class="cls-185" x="148.99" y="278.5" width="448.01" height="1" transform="translate(-88.04 345.46) rotate(-45)"/><rect class="cls-186" x="149.69" y="279.21" width="448.01" height="1" transform="translate(-88.33 346.17) rotate(-45)"/><rect class="cls-187" x="150.39" y="279.91" width="448.01" height="1" transform="translate(-88.62 346.87) rotate(-45)"/><rect class="cls-188" x="151.1" y="280.61" width="448.01" height="1" transform="translate(-88.91 347.57) rotate(-45)"/><rect class="cls-188" x="151.8" y="281.32" width="448.01" height="1" transform="translate(-89.2 348.28) rotate(-45)"/><rect class="cls-189" x="152.51" y="282.02" width="448.01" height="1" transform="translate(-89.49 348.98) rotate(-45)"/><rect class="cls-190" x="153.21" y="282.73" width="448.01" height="1" transform="translate(-89.79 349.68) rotate(-45)"/><rect class="cls-191" x="153.91" y="283.43" width="448.01" height="1" transform="translate(-90.08 350.39) rotate(-45)"/><rect class="cls-191" x="154.62" y="284.13" width="448.01" height="1" transform="translate(-90.37 351.09) rotate(-45)"/><rect class="cls-192" x="155.32" y="284.84" width="448.01" height="1" transform="translate(-90.66 351.8) rotate(-45)"/><rect class="cls-193" x="156.02" y="285.54" width="448.01" height="1" transform="translate(-90.95 352.5) rotate(-45)"/><rect class="cls-194" x="156.73" y="286.24" width="448.01" height="1" transform="translate(-91.24 353.2) rotate(-45)"/><rect class="cls-194" x="157.43" y="286.95" width="448.01" height="1" transform="translate(-91.53 353.91) rotate(-45)"/><rect class="cls-194" x="158.14" y="287.65" width="448.01" height="1" transform="translate(-91.83 354.61) rotate(-45)"/><rect class="cls-194" x="158.84" y="288.36" width="448.01" height="1" transform="translate(-92.12 355.32) rotate(-45)"/><rect class="cls-195" x="159.54" y="289.06" width="448.01" height="1" transform="translate(-92.41 356.02) rotate(-45)"/><rect class="cls-196" x="160.25" y="289.76" width="448.01" height="1" transform="translate(-92.7 356.72) rotate(-45)"/><rect class="cls-196" x="160.95" y="290.47" width="448.01" height="1" transform="translate(-92.99 357.43) rotate(-45)"/><rect class="cls-196" x="161.66" y="291.17" width="448.01" height="1" transform="translate(-93.28 358.13) rotate(-45)"/><rect class="cls-196" x="162.36" y="291.88" width="448.01" height="1" transform="translate(-93.58 358.83) rotate(-45)"/><rect class="cls-197" x="163.06" y="292.58" width="448.01" height="1" transform="translate(-93.87 359.54) rotate(-45)"/><rect class="cls-197" x="163.77" y="293.28" width="448.01" height="1" transform="translate(-94.16 360.24) rotate(-45)"/><rect class="cls-198" x="164.47" y="293.99" width="448.01" height="1" transform="translate(-94.45 360.95) rotate(-45)"/><rect class="cls-198" x="165.17" y="294.69" width="448.01" height="1" transform="translate(-94.74 361.65) rotate(-45)"/><rect class="cls-199" x="165.88" y="295.39" width="448.01" height="1" transform="translate(-95.03 362.35) rotate(-45)"/><rect class="cls-199" x="166.58" y="296.1" width="448.01" height="1" transform="translate(-95.32 363.06) rotate(-45)"/><rect class="cls-199" x="167.29" y="296.8" width="448.01" height="1" transform="translate(-95.62 363.76) rotate(-45)"/><rect class="cls-199" x="167.99" y="297.51" width="448.01" height="1" transform="translate(-95.91 364.47) rotate(-45)"/><rect class="cls-200" x="168.69" y="298.21" width="448.01" height="1" transform="translate(-96.2 365.17) rotate(-45)"/><rect class="cls-200" x="169.4" y="298.91" width="448.01" height="1" transform="translate(-96.49 365.87) rotate(-45)"/><rect class="cls-200" x="170.1" y="299.62" width="448.01" height="1" transform="translate(-96.78 366.58) rotate(-45)"/><rect class="cls-200" x="170.81" y="300.32" width="448.01" height="1" transform="translate(-97.07 367.28) rotate(-45)"/><rect class="cls-200" x="171.51" y="301.03" width="448.01" height="1" transform="translate(-97.37 367.98) rotate(-45)"/><rect class="cls-200" x="172.21" y="301.73" width="448.01" height="1" transform="translate(-97.66 368.69) rotate(-45)"/><rect class="cls-200" x="172.92" y="302.43" width="448.01" height="1" transform="translate(-97.95 369.39) rotate(-45)"/><rect class="cls-200" x="173.62" y="303.14" width="448.01" height="1" transform="translate(-98.24 370.1) rotate(-45)"/><rect class="cls-201" x="174.32" y="303.84" width="448.01" height="1" transform="translate(-98.53 370.8) rotate(-45)"/><rect class="cls-201" x="175.03" y="304.54" width="448.01" height="1" transform="translate(-98.82 371.5) rotate(-45)"/><rect class="cls-201" x="175.73" y="305.25" width="448.01" height="1" transform="translate(-99.11 372.21) rotate(-45)"/><rect class="cls-201" x="176.44" y="305.95" width="448.01" height="1" transform="translate(-99.41 372.91) rotate(-45)"/><rect class="cls-201" x="177.14" y="306.66" width="448.01" height="1" transform="translate(-99.7 373.62) rotate(-45)"/><rect class="cls-201" x="177.84" y="307.36" width="448.01" height="1" transform="translate(-99.99 374.32) rotate(-45)"/><rect class="cls-201" x="178.55" y="308.06" width="448.01" height="1" transform="translate(-100.28 375.02) rotate(-45)"/><rect class="cls-201" x="181.78" y="307.72" width="448.01" height="8.14" transform="translate(-101.62 378.25) rotate(-45)"/><rect class="cls-201" x="187.53" y="313.48" width="448.01" height="8.14" transform="translate(-104 384.01) rotate(-45)"/><rect class="cls-201" x="193.29" y="319.23" width="448.01" height="8.14" transform="translate(-106.39 389.76) rotate(-45)"/><rect class="cls-201" x="199.05" y="324.99" width="448.01" height="8.14" transform="translate(-108.77 395.52) rotate(-45)"/><rect class="cls-202" x="204.8" y="330.75" width="448.01" height="8.14" transform="translate(-111.16 401.28) rotate(-45)"/><polygon class="cls-202" points="590.08 179.3 593.94 183.16 593.94 186.95 280.94 499.95 277.15 499.95 273.29 496.09 590.08 179.3"/><polygon class="cls-202" points="593.94 198.46 292.45 499.95 280.94 499.95 593.94 186.95 593.94 198.46"/><polygon class="cls-203" points="593.94 209.97 303.96 499.95 292.45 499.95 593.94 198.46 593.94 209.97"/><polygon class="cls-203" points="593.94 221.48 315.48 499.95 303.96 499.95 593.94 209.97 593.94 221.48"/><polygon class="cls-204" points="593.94 233 326.99 499.95 315.48 499.95 593.94 221.48 593.94 233"/><polygon class="cls-205" points="593.94 244.51 338.5 499.95 326.99 499.95 593.94 233 593.94 244.51"/><polygon class="cls-206" points="593.94 256.02 350.01 499.95 338.5 499.95 593.94 244.51 593.94 256.02"/><polygon class="cls-207" points="593.94 267.53 361.52 499.95 350.01 499.95 593.94 256.02 593.94 267.53"/><polygon class="cls-208" points="593.94 279.04 373.04 499.95 361.52 499.95 593.94 267.53 593.94 279.04"/><polygon class="cls-209" points="593.94 290.56 384.55 499.95 373.04 499.95 593.94 279.04 593.94 290.56"/><polygon class="cls-210" points="593.94 302.07 396.06 499.95 384.55 499.95 593.94 290.56 593.94 302.07"/><polygon class="cls-211" points="593.94 313.58 407.57 499.95 396.06 499.95 593.94 302.07 593.94 313.58"/><polygon class="cls-212" points="593.94 325.09 419.08 499.95 407.57 499.95 593.94 313.58 593.94 325.09"/><polygon class="cls-213" points="593.94 336.6 430.6 499.95 419.08 499.95 593.94 325.09 593.94 336.6"/><polygon class="cls-214" points="593.94 348.12 442.11 499.95 430.6 499.95 593.94 336.6 593.94 348.12"/><polygon class="cls-215" points="593.94 359.63 453.62 499.95 442.11 499.95 593.94 348.12 593.94 359.63"/><polygon class="cls-216" points="593.94 371.14 465.13 499.95 453.62 499.95 593.94 359.63 593.94 371.14"/><polygon class="cls-217" points="593.94 382.65 476.64 499.95 465.13 499.95 593.94 371.14 593.94 382.65"/><polygon class="cls-218" points="593.94 394.16 488.15 499.95 476.64 499.95 593.94 382.65 593.94 394.16"/><polygon class="cls-219" points="593.94 405.68 499.67 499.95 488.15 499.95 593.94 394.16 593.94 405.68"/><polygon class="cls-219" points="499.67 499.95 593.94 405.68 593.94 499.95 499.67 499.95"/><polygon class="cls-7" points="307.54 83.33 181.47 209.4 181.47 83.33 307.54 83.33"/><polygon class="cls-7" points="308.95 83.33 181.47 210.81 181.47 209.4 307.54 83.33 308.95 83.33"/><polygon class="cls-8" points="310.36 83.33 181.47 212.21 181.47 210.81 308.95 83.33 310.36 83.33"/><polygon class="cls-9" points="311.76 83.33 181.47 213.62 181.47 212.21 310.36 83.33 311.76 83.33"/><polygon class="cls-10" points="313.17 83.33 181.47 215.03 181.47 213.62 311.76 83.33 313.17 83.33"/><polygon class="cls-11" points="314.58 83.33 181.47 216.44 181.47 215.03 313.17 83.33 314.58 83.33"/><polygon class="cls-12" points="315.99 83.33 181.47 217.84 181.47 216.44 314.58 83.33 315.99 83.33"/><polygon class="cls-13" points="317.39 83.33 181.47 219.25 181.47 217.84 315.99 83.33 317.39 83.33"/><polygon class="cls-14" points="318.8 83.33 181.47 220.66 181.47 219.25 317.39 83.33 318.8 83.33"/><polygon class="cls-15" points="320.21 83.33 181.47 222.07 181.47 220.66 318.8 83.33 320.21 83.33"/><polygon class="cls-16" points="321.62 83.33 181.47 223.47 181.47 222.07 320.21 83.33 321.62 83.33"/><polygon class="cls-17" points="323.03 83.33 181.47 224.88 181.47 223.47 321.62 83.33 323.03 83.33"/><polygon class="cls-18" points="324.43 83.33 181.47 226.29 181.47 224.88 323.03 83.33 324.43 83.33"/><polygon class="cls-19" points="325.84 83.33 181.47 227.7 181.47 226.29 324.43 83.33 325.84 83.33"/><polygon class="cls-20" points="327.25 83.33 181.47 229.1 181.47 227.7 325.84 83.33 327.25 83.33"/><polygon class="cls-21" points="328.66 83.33 181.47 230.51 181.47 229.1 327.25 83.33 328.66 83.33"/><polygon class="cls-22" points="330.06 83.33 181.47 231.92 181.47 230.51 328.66 83.33 330.06 83.33"/><polygon class="cls-23" points="331.47 83.33 181.47 233.33 181.47 231.92 330.06 83.33 331.47 83.33"/><polygon class="cls-24" points="332.88 83.33 181.47 234.74 181.47 233.33 331.47 83.33 332.88 83.33"/><polygon class="cls-25" points="334.29 83.33 181.47 236.14 181.47 234.74 332.88 83.33 334.29 83.33"/><polygon class="cls-26" points="335.69 83.33 181.47 237.55 181.47 236.14 334.29 83.33 335.69 83.33"/><polygon class="cls-27" points="337.1 83.33 181.47 238.96 181.47 237.55 335.69 83.33 337.1 83.33"/><polygon class="cls-28" points="338.51 83.33 181.47 240.37 181.47 238.96 337.1 83.33 338.51 83.33"/><polygon class="cls-29" points="339.92 83.33 181.47 241.77 181.47 240.37 338.51 83.33 339.92 83.33"/><polygon class="cls-30" points="341.32 83.33 181.47 243.18 181.47 241.77 339.92 83.33 341.32 83.33"/><polygon class="cls-31" points="342.73 83.33 181.47 244.59 181.47 243.18 341.32 83.33 342.73 83.33"/><polygon class="cls-32" points="344.14 83.33 181.47 246 181.47 244.59 342.73 83.33 344.14 83.33"/><polygon class="cls-33" points="345.55 83.33 181.47 247.41 181.47 246 344.14 83.33 345.55 83.33"/><polygon class="cls-34" points="346.96 83.33 181.47 248.81 181.47 247.41 345.55 83.33 346.96 83.33"/><polygon class="cls-35" points="348.36 83.33 181.47 250.22 181.47 248.81 346.96 83.33 348.36 83.33"/><polygon class="cls-36" points="349.77 83.33 181.47 251.63 181.47 250.22 348.36 83.33 349.77 83.33"/><polygon class="cls-37" points="351.18 83.33 181.47 253.04 181.47 251.63 349.77 83.33 351.18 83.33"/><polygon class="cls-38" points="352.59 83.33 181.47 254.44 181.47 253.04 351.18 83.33 352.59 83.33"/><polygon class="cls-39" points="353.99 83.33 181.47 255.85 181.47 254.44 352.59 83.33 353.99 83.33"/><polygon class="cls-40" points="355.4 83.33 181.47 257.26 181.47 255.85 353.99 83.33 355.4 83.33"/><polygon class="cls-41" points="356.81 83.33 181.47 258.67 181.47 257.26 355.4 83.33 356.81 83.33"/><polygon class="cls-42" points="358.22 83.33 181.47 260.07 181.47 258.67 356.81 83.33 358.22 83.33"/><polygon class="cls-43" points="359.63 83.33 181.47 261.48 181.47 260.07 358.22 83.33 359.63 83.33"/><polygon class="cls-44" points="361.03 83.33 181.47 262.89 181.47 261.48 359.63 83.33 361.03 83.33"/><polygon class="cls-45" points="362.44 83.33 181.47 264.3 181.47 262.89 361.03 83.33 362.44 83.33"/><polygon class="cls-46" points="363.85 83.33 181.47 265.7 181.47 264.3 362.44 83.33 363.85 83.33"/><polygon class="cls-47" points="365.26 83.33 181.47 267.11 181.47 265.7 363.85 83.33 365.26 83.33"/><polygon class="cls-48" points="366.66 83.33 181.47 268.52 181.47 267.11 365.26 83.33 366.66 83.33"/><polygon class="cls-49" points="368.07 83.33 181.47 269.93 181.47 268.52 366.66 83.33 368.07 83.33"/><polygon class="cls-50" points="369.48 83.33 181.47 271.33 181.47 269.93 368.07 83.33 369.48 83.33"/><polygon class="cls-51" points="370.89 83.33 181.47 272.74 181.47 271.33 369.48 83.33 370.89 83.33"/><polygon class="cls-52" points="372.29 83.33 181.47 274.15 181.47 272.74 370.89 83.33 372.29 83.33"/><polygon class="cls-53" points="373.7 83.33 181.47 275.56 181.47 274.15 372.29 83.33 373.7 83.33"/><polygon class="cls-54" points="375.11 83.33 181.47 276.97 181.47 275.56 373.7 83.33 375.11 83.33"/><polygon class="cls-55" points="376.52 83.33 181.47 278.37 181.47 276.97 375.11 83.33 376.52 83.33"/><polygon class="cls-56" points="377.93 83.33 181.47 279.78 181.47 278.37 376.52 83.33 377.93 83.33"/><polygon class="cls-57" points="379.33 83.33 181.47 281.19 181.47 279.78 377.93 83.33 379.33 83.33"/><polygon class="cls-58" points="380.74 83.33 181.47 282.6 181.47 281.19 379.33 83.33 380.74 83.33"/><polygon class="cls-59" points="382.15 83.33 181.47 284 181.47 282.6 380.74 83.33 382.15 83.33"/><polygon class="cls-60" points="383.56 83.33 181.47 285.41 181.47 284 382.15 83.33 383.56 83.33"/><polygon class="cls-61" points="384.96 83.33 181.47 286.82 181.47 285.41 383.56 83.33 384.96 83.33"/><polygon class="cls-62" points="386.37 83.33 181.47 288.23 181.47 286.82 384.96 83.33 386.37 83.33"/><polygon class="cls-63" points="387.78 83.33 181.47 289.63 181.47 288.23 386.37 83.33 387.78 83.33"/><polygon class="cls-64" points="389.19 83.33 181.47 291.04 181.47 289.63 387.78 83.33 389.19 83.33"/><polygon class="cls-65" points="390.59 83.33 181.47 292.45 181.47 291.04 389.19 83.33 390.59 83.33"/><polygon class="cls-66" points="392 83.33 181.47 293.86 181.47 292.45 390.59 83.33 392 83.33"/><polygon class="cls-67" points="393.41 83.33 181.47 295.27 181.47 293.86 392 83.33 393.41 83.33"/><polygon class="cls-68" points="394.82 83.33 181.47 296.67 181.47 295.27 393.41 83.33 394.82 83.33"/><polygon class="cls-69" points="396.23 83.33 181.47 298.08 181.47 296.67 394.82 83.33 396.23 83.33"/><polygon class="cls-70" points="397.63 83.33 181.47 299.49 181.47 298.08 396.23 83.33 397.63 83.33"/><polygon class="cls-71" points="399.04 83.33 181.47 300.9 181.47 299.49 397.63 83.33 399.04 83.33"/><polygon class="cls-72" points="400.45 83.33 181.47 302.3 181.47 300.9 399.04 83.33 400.45 83.33"/><polygon class="cls-73" points="401.86 83.33 181.47 303.71 181.47 302.3 400.45 83.33 401.86 83.33"/><polygon class="cls-74" points="403.26 83.33 181.47 305.12 181.47 303.71 401.86 83.33 403.26 83.33"/><polygon class="cls-75" points="404.67 83.33 181.47 306.53 181.47 305.12 403.26 83.33 404.67 83.33"/><polygon class="cls-76" points="406.08 83.33 181.47 307.94 181.47 306.53 404.67 83.33 406.08 83.33"/><polygon class="cls-77" points="407.49 83.33 181.47 309.34 181.47 307.94 406.08 83.33 407.49 83.33"/><polygon class="cls-78" points="408.89 83.33 181.47 310.75 181.47 309.34 407.49 83.33 408.89 83.33"/><polygon class="cls-79" points="410.3 83.33 181.47 312.16 181.47 310.75 408.89 83.33 410.3 83.33"/><polygon class="cls-80" points="411.71 83.33 181.47 313.57 181.47 312.16 410.3 83.33 411.71 83.33"/><polygon class="cls-81" points="413.12 83.33 181.47 314.97 181.47 313.57 411.71 83.33 413.12 83.33"/><polygon class="cls-82" points="414.52 83.33 181.47 316.38 181.47 314.97 413.12 83.33 414.52 83.33"/><polygon class="cls-83" points="415.93 83.33 181.47 317.79 181.47 316.38 414.52 83.33 415.93 83.33"/><polygon class="cls-84" points="417.34 83.33 181.47 319.2 181.47 317.79 415.93 83.33 417.34 83.33"/><polygon class="cls-85" points="418.75 83.33 181.47 320.6 181.47 319.2 417.34 83.33 418.75 83.33"/><polygon class="cls-86" points="420.15 83.33 181.47 322.01 181.47 320.6 418.75 83.33 420.15 83.33"/><polygon class="cls-87" points="421.56 83.33 181.47 323.42 181.47 322.01 420.15 83.33 421.56 83.33"/><polygon class="cls-88" points="422.97 83.33 181.47 324.83 181.47 323.42 421.56 83.33 422.97 83.33"/><polygon class="cls-89" points="424.38 83.33 181.47 326.24 181.47 324.83 422.97 83.33 424.38 83.33"/><polygon class="cls-90" points="425.79 83.33 181.47 327.64 181.47 326.24 424.38 83.33 425.79 83.33"/><polygon class="cls-91" points="427.19 83.33 181.47 329.05 181.47 327.64 425.79 83.33 427.19 83.33"/><polygon class="cls-92" points="428.6 83.33 181.47 330.46 181.47 329.05 427.19 83.33 428.6 83.33"/><polygon class="cls-93" points="430.01 83.33 181.47 331.87 181.47 330.46 428.6 83.33 430.01 83.33"/><polygon class="cls-94" points="431.42 83.33 181.47 333.27 181.47 331.87 430.01 83.33 431.42 83.33"/><polygon class="cls-95" points="432.82 83.33 181.47 334.68 181.47 333.27 431.42 83.33 432.82 83.33"/><polygon class="cls-96" points="434.23 83.33 181.47 336.09 181.47 334.68 432.82 83.33 434.23 83.33"/><polygon class="cls-97" points="435.64 83.33 181.47 337.5 181.47 336.09 434.23 83.33 435.64 83.33"/><polygon class="cls-98" points="437.05 83.33 181.47 338.9 181.47 337.5 435.64 83.33 437.05 83.33"/><polygon class="cls-99" points="438.45 83.33 181.47 340.31 181.47 338.9 437.05 83.33 438.45 83.33"/><polygon class="cls-100" points="439.86 83.33 181.47 341.72 181.47 340.31 438.45 83.33 439.86 83.33"/><polygon class="cls-101" points="441.27 83.33 181.47 343.13 181.47 341.72 439.86 83.33 441.27 83.33"/><polygon class="cls-102" points="442.68 83.33 181.47 344.54 181.47 343.13 441.27 83.33 442.68 83.33"/><polygon class="cls-103" points="444.09 83.33 181.47 345.94 181.47 344.54 442.68 83.33 444.09 83.33"/><polygon class="cls-104" points="445.49 83.33 181.47 347.35 181.47 345.94 444.09 83.33 445.49 83.33"/><polygon class="cls-105" points="446.9 83.33 181.47 348.76 181.47 347.35 445.49 83.33 446.9 83.33"/><polygon class="cls-106" points="448.31 83.33 181.47 350.17 181.47 348.76 446.9 83.33 448.31 83.33"/><polygon class="cls-107" points="449.72 83.33 181.47 351.57 181.47 350.17 448.31 83.33 449.72 83.33"/><polygon class="cls-108" points="451.12 83.33 181.47 352.98 181.47 351.57 449.72 83.33 451.12 83.33"/><polygon class="cls-109" points="452.53 83.33 181.47 354.39 181.47 352.98 451.12 83.33 452.53 83.33"/><polygon class="cls-110" points="453.94 83.33 181.47 355.8 181.47 354.39 452.53 83.33 453.94 83.33"/><polygon class="cls-111" points="455.35 83.33 181.47 357.2 181.47 355.8 453.94 83.33 455.35 83.33"/><polygon class="cls-112" points="456.75 83.33 181.47 358.61 181.47 357.2 455.35 83.33 456.75 83.33"/><polygon class="cls-113" points="458.16 83.33 181.47 360.02 181.47 358.61 456.75 83.33 458.16 83.33"/><polygon class="cls-114" points="459.57 83.33 181.47 361.43 181.47 360.02 458.16 83.33 459.57 83.33"/><polygon class="cls-115" points="460.98 83.33 181.47 362.83 181.47 361.43 459.57 83.33 460.98 83.33"/><polygon class="cls-116" points="462.38 83.33 181.47 364.24 181.47 362.83 460.98 83.33 462.38 83.33"/><polygon class="cls-117" points="463.79 83.33 181.47 365.65 181.47 364.24 462.38 83.33 463.79 83.33"/><polygon class="cls-118" points="465.2 83.33 181.47 367.06 181.47 365.65 463.79 83.33 465.2 83.33"/><polygon class="cls-119" points="466.61 83.33 181.47 368.46 181.47 367.06 465.2 83.33 466.61 83.33"/><polygon class="cls-120" points="468.02 83.33 181.47 369.87 181.47 368.46 466.61 83.33 468.02 83.33"/><polygon class="cls-121" points="469.42 83.33 181.47 371.28 181.47 369.87 468.02 83.33 469.42 83.33"/><polygon class="cls-122" points="470.83 83.33 181.47 372.69 181.47 371.28 469.42 83.33 470.83 83.33"/><polygon class="cls-123" points="472.24 83.33 181.47 374.1 181.47 372.69 470.83 83.33 472.24 83.33"/><polygon class="cls-124" points="473.65 83.33 181.47 375.5 181.47 374.1 472.24 83.33 473.65 83.33"/><polygon class="cls-125" points="475.06 83.33 181.47 376.91 181.47 375.5 473.65 83.33 475.06 83.33"/><polygon class="cls-126" points="476.46 83.33 181.47 378.32 181.47 376.91 475.06 83.33 476.46 83.33"/><polygon class="cls-127" points="477.87 83.33 181.47 379.73 181.47 378.32 476.46 83.33 477.87 83.33"/><polygon class="cls-128" points="479.28 83.33 181.47 381.13 181.47 379.73 477.87 83.33 479.28 83.33"/><polygon class="cls-129" points="480.69 83.33 181.47 382.54 181.47 381.13 479.28 83.33 480.69 83.33"/><polygon class="cls-130" points="482.09 83.33 181.47 383.95 181.47 382.54 480.69 83.33 482.09 83.33"/><polygon class="cls-131" points="483.5 83.33 181.47 385.36 181.47 383.95 482.09 83.33 483.5 83.33"/><polygon class="cls-132" points="484.91 83.33 181.47 386.76 181.47 385.36 483.5 83.33 484.91 83.33"/><polygon class="cls-133" points="486.32 83.33 181.47 388.17 181.47 386.76 484.91 83.33 486.32 83.33"/><polygon class="cls-133" points="487.72 83.33 181.47 389.58 181.47 388.17 486.32 83.33 487.72 83.33"/><polygon class="cls-134" points="489.13 83.33 181.47 390.99 181.47 389.58 487.72 83.33 489.13 83.33"/><polygon class="cls-135" points="490.54 83.33 181.47 392.4 181.47 390.99 489.13 83.33 490.54 83.33"/><polygon class="cls-136" points="491.95 83.33 181.47 393.8 181.47 392.4 490.54 83.33 491.95 83.33"/><polygon class="cls-137" points="493.35 83.33 181.47 395.21 181.47 393.8 491.95 83.33 493.35 83.33"/><polygon class="cls-138" points="494.76 83.33 181.47 396.62 181.47 395.21 493.35 83.33 494.76 83.33"/><polygon class="cls-138" points="496.17 83.33 181.47 398.03 181.47 396.62 494.76 83.33 496.17 83.33"/><polygon class="cls-139" points="497.58 83.33 181.47 399.43 181.47 398.03 496.17 83.33 497.58 83.33"/><polygon class="cls-140" points="498.99 83.33 181.47 400.84 181.47 399.43 497.58 83.33 498.99 83.33"/><polygon class="cls-141" points="500.39 83.33 181.47 402.25 181.47 400.84 498.99 83.33 500.39 83.33"/><polygon class="cls-142" points="501.8 83.33 181.47 403.66 181.47 402.25 500.39 83.33 501.8 83.33"/><polygon class="cls-143" points="503.21 83.33 181.47 405.06 181.47 403.66 501.8 83.33 503.21 83.33"/><polygon class="cls-144" points="504.62 83.33 181.47 406.47 181.47 405.06 503.21 83.33 504.62 83.33"/><polygon class="cls-145" points="506.02 83.33 181.47 407.88 181.47 406.47 504.62 83.33 506.02 83.33"/><polygon class="cls-146" points="507.43 83.33 181.47 409.29 181.47 407.88 506.02 83.33 507.43 83.33"/><polygon class="cls-147" points="508.84 83.33 181.47 410.69 181.47 409.29 507.43 83.33 508.84 83.33"/><polygon class="cls-148" points="510.25 83.33 181.47 412.1 181.47 410.69 508.84 83.33 510.25 83.33"/><polygon class="cls-149" points="511.65 83.33 181.47 413.51 181.47 412.1 510.25 83.33 511.65 83.33"/><polygon class="cls-150" points="513.06 83.33 181.47 414.92 181.47 413.51 511.65 83.33 513.06 83.33"/><polygon class="cls-151" points="514.47 83.33 181.47 416.33 181.47 414.92 513.06 83.33 514.47 83.33"/><polygon class="cls-152" points="515.88 83.33 181.47 417.73 181.47 416.33 514.47 83.33 515.88 83.33"/><polygon class="cls-153" points="516.77 83.33 517.03 83.58 181.47 419.14 181.47 417.73 515.88 83.33 516.77 83.33"/><polygon class="cls-154" points="517.03 83.58 517.73 84.29 181.47 420.55 181.47 419.14 517.03 83.58"/><polygon class="cls-155" points="517.73 84.29 518.44 84.99 181.47 421.96 181.47 420.55 517.73 84.29"/><polygon class="cls-156" points="518.44 84.99 519.14 85.69 181.76 423.07 181.47 422.78 181.47 421.96 518.44 84.99"/><rect class="cls-157" x="112.24" y="254.24" width="477.13" height="1" transform="translate(-77.38 322.67) rotate(-45)"/><rect class="cls-158" x="112.94" y="254.94" width="477.13" height="1" transform="translate(-77.67 323.37) rotate(-45)"/><rect class="cls-159" x="113.65" y="255.65" width="477.13" height="1" transform="translate(-77.96 324.07) rotate(-45)"/><rect class="cls-160" x="114.35" y="256.35" width="477.13" height="1" transform="translate(-78.25 324.78) rotate(-45)"/><rect class="cls-161" x="115.05" y="257.05" width="477.13" height="1" transform="translate(-78.54 325.48) rotate(-45)"/><rect class="cls-162" x="115.76" y="257.76" width="477.13" height="1" transform="translate(-78.84 326.18) rotate(-45)"/><rect class="cls-163" x="116.46" y="258.46" width="477.13" height="1" transform="translate(-79.13 326.89) rotate(-45)"/><rect class="cls-164" x="117.17" y="259.16" width="477.13" height="1" transform="translate(-79.42 327.59) rotate(-45)"/><rect class="cls-165" x="117.87" y="259.87" width="477.13" height="1" transform="translate(-79.71 328.3) rotate(-45)"/><rect class="cls-166" x="118.57" y="260.57" width="477.13" height="1" transform="translate(-80 329) rotate(-45)"/><rect class="cls-167" x="119.28" y="261.28" width="477.13" height="1" transform="translate(-80.29 329.7) rotate(-45)"/><rect class="cls-168" x="119.98" y="261.98" width="477.13" height="1" transform="translate(-80.58 330.41) rotate(-45)"/><rect class="cls-169" x="120.68" y="262.68" width="477.13" height="1" transform="translate(-80.88 331.11) rotate(-45)"/><rect class="cls-170" x="121.39" y="263.39" width="477.13" height="1" transform="translate(-81.17 331.82) rotate(-45)"/><rect class="cls-171" x="122.09" y="264.09" width="477.13" height="1" transform="translate(-81.46 332.52) rotate(-45)"/><rect class="cls-172" x="122.8" y="264.8" width="477.13" height="1" transform="translate(-81.75 333.22) rotate(-45)"/><rect class="cls-173" x="123.5" y="265.5" width="477.13" height="1" transform="translate(-82.04 333.93) rotate(-45)"/><rect class="cls-174" x="124.2" y="266.2" width="477.13" height="1" transform="translate(-82.33 334.63) rotate(-45)"/><rect class="cls-174" x="124.91" y="266.91" width="477.13" height="1" transform="translate(-82.63 335.33) rotate(-45)"/><rect class="cls-175" x="125.61" y="267.61" width="477.13" height="1" transform="translate(-82.92 336.04) rotate(-45)"/><rect class="cls-175" x="126.32" y="268.31" width="477.13" height="1" transform="translate(-83.21 336.74) rotate(-45)"/><rect class="cls-176" x="127.02" y="269.02" width="477.13" height="1" transform="translate(-83.5 337.45) rotate(-45)"/><rect class="cls-177" x="127.72" y="269.72" width="477.13" height="1" transform="translate(-83.79 338.15) rotate(-45)"/><rect class="cls-178" x="128.43" y="270.43" width="477.13" height="1" transform="translate(-84.08 338.85) rotate(-45)"/><rect class="cls-179" x="129.13" y="271.13" width="477.13" height="1" transform="translate(-84.37 339.56) rotate(-45)"/><rect class="cls-180" x="129.83" y="271.83" width="477.13" height="1" transform="translate(-84.67 340.26) rotate(-45)"/><rect class="cls-180" x="130.54" y="272.54" width="477.13" height="1" transform="translate(-84.96 340.97) rotate(-45)"/><rect class="cls-181" x="131.24" y="273.24" width="477.13" height="1" transform="translate(-85.25 341.67) rotate(-45)"/><rect class="cls-182" x="131.95" y="273.95" width="477.13" height="1" transform="translate(-85.54 342.37) rotate(-45)"/><rect class="cls-182" x="132.65" y="274.65" width="477.13" height="1" transform="translate(-85.83 343.08) rotate(-45)"/><rect class="cls-183" x="133.35" y="275.35" width="477.13" height="1" transform="translate(-86.12 343.78) rotate(-45)"/><rect class="cls-184" x="134.06" y="276.06" width="477.13" height="1" transform="translate(-86.42 344.48) rotate(-45)"/><rect class="cls-184" x="134.76" y="276.76" width="477.13" height="1" transform="translate(-86.71 345.19) rotate(-45)"/><rect class="cls-185" x="135.47" y="277.46" width="477.13" height="1" transform="translate(-87 345.89) rotate(-45)"/><rect class="cls-186" x="136.17" y="278.17" width="477.13" height="1" transform="translate(-87.29 346.6) rotate(-45)"/><rect class="cls-187" x="136.87" y="278.87" width="477.13" height="1" transform="translate(-87.58 347.3) rotate(-45)"/><rect class="cls-188" x="137.58" y="279.58" width="477.13" height="1" transform="translate(-87.87 348) rotate(-45)"/><rect class="cls-188" x="138.28" y="280.28" width="477.13" height="1" transform="translate(-88.16 348.71) rotate(-45)"/><rect class="cls-189" x="138.98" y="280.98" width="477.13" height="1" transform="translate(-88.46 349.41) rotate(-45)"/><rect class="cls-190" x="139.69" y="281.69" width="477.13" height="1" transform="translate(-88.75 350.11) rotate(-45)"/><rect class="cls-191" x="140.39" y="282.39" width="477.13" height="1" transform="translate(-89.04 350.82) rotate(-45)"/><rect class="cls-191" x="141.1" y="283.1" width="477.13" height="1" transform="translate(-89.33 351.52) rotate(-45)"/><rect class="cls-192" x="141.8" y="283.8" width="477.13" height="1" transform="translate(-89.62 352.23) rotate(-45)"/><rect class="cls-193" x="142.5" y="284.5" width="477.13" height="1" transform="translate(-89.91 352.93) rotate(-45)"/><rect class="cls-194" x="143.21" y="285.21" width="477.13" height="1" transform="translate(-90.21 353.63) rotate(-45)"/><rect class="cls-194" x="143.91" y="285.91" width="477.13" height="1" transform="translate(-90.5 354.34) rotate(-45)"/><rect class="cls-194" x="144.61" y="286.61" width="477.13" height="1" transform="translate(-90.79 355.04) rotate(-45)"/><rect class="cls-194" x="145.32" y="287.32" width="477.13" height="1" transform="translate(-91.08 355.75) rotate(-45)"/><rect class="cls-195" x="146.02" y="288.02" width="477.13" height="1" transform="translate(-91.37 356.45) rotate(-45)"/><rect class="cls-196" x="146.73" y="288.73" width="477.13" height="1" transform="translate(-91.66 357.15) rotate(-45)"/><rect class="cls-196" x="147.43" y="289.43" width="477.13" height="1" transform="translate(-91.95 357.86) rotate(-45)"/><rect class="cls-196" x="148.13" y="290.13" width="477.13" height="1" transform="translate(-92.25 358.56) rotate(-45)"/><rect class="cls-196" x="148.84" y="290.84" width="477.13" height="1" transform="translate(-92.54 359.26) rotate(-45)"/><rect class="cls-197" x="149.54" y="291.54" width="477.13" height="1" transform="translate(-92.83 359.97) rotate(-45)"/><rect class="cls-197" x="150.25" y="292.25" width="477.13" height="1" transform="translate(-93.12 360.67) rotate(-45)"/><rect class="cls-198" x="150.95" y="292.95" width="477.13" height="1" transform="translate(-93.41 361.38) rotate(-45)"/><rect class="cls-198" x="151.65" y="293.65" width="477.13" height="1" transform="translate(-93.7 362.08) rotate(-45)"/><rect class="cls-199" x="152.36" y="294.36" width="477.13" height="1" transform="translate(-94 362.78) rotate(-45)"/><rect class="cls-199" x="153.06" y="295.06" width="477.13" height="1" transform="translate(-94.29 363.49) rotate(-45)"/><rect class="cls-199" x="153.76" y="295.76" width="477.13" height="1" transform="translate(-94.58 364.19) rotate(-45)"/><rect class="cls-199" x="154.47" y="296.47" width="477.13" height="1" transform="translate(-94.87 364.9) rotate(-45)"/><rect class="cls-200" x="155.17" y="297.17" width="477.13" height="1" transform="translate(-95.16 365.6) rotate(-45)"/><rect class="cls-200" x="155.88" y="297.88" width="477.13" height="1" transform="translate(-95.45 366.3) rotate(-45)"/><rect class="cls-200" x="156.58" y="298.58" width="477.13" height="1" transform="translate(-95.74 367.01) rotate(-45)"/><rect class="cls-200" x="157.28" y="299.28" width="477.13" height="1" transform="translate(-96.04 367.71) rotate(-45)"/><rect class="cls-200" x="157.99" y="299.99" width="477.13" height="1" transform="translate(-96.33 368.41) rotate(-45)"/><rect class="cls-200" x="158.69" y="300.69" width="477.13" height="1" transform="translate(-96.62 369.12) rotate(-45)"/><rect class="cls-200" x="159.4" y="301.39" width="477.13" height="1" transform="translate(-96.91 369.82) rotate(-45)"/><rect class="cls-200" x="160.1" y="302.1" width="477.13" height="1" transform="translate(-97.2 370.53) rotate(-45)"/><rect class="cls-201" x="160.8" y="302.8" width="477.13" height="1" transform="translate(-97.49 371.23) rotate(-45)"/><rect class="cls-201" x="161.51" y="303.51" width="477.13" height="1" transform="translate(-97.79 371.93) rotate(-45)"/><rect class="cls-201" x="162.21" y="304.21" width="477.13" height="1" transform="translate(-98.08 372.64) rotate(-45)"/><rect class="cls-201" x="162.91" y="304.91" width="477.13" height="1" transform="translate(-98.37 373.34) rotate(-45)"/><rect class="cls-201" x="163.62" y="305.62" width="477.13" height="1" transform="translate(-98.66 374.05) rotate(-45)"/><rect class="cls-201" x="164.32" y="306.32" width="477.13" height="1" transform="translate(-98.95 374.75) rotate(-45)"/><rect class="cls-201" x="165.03" y="307.03" width="477.13" height="1" transform="translate(-99.24 375.45) rotate(-45)"/><rect class="cls-201" x="168.26" y="306.68" width="477.13" height="8.14" transform="translate(-100.58 378.68) rotate(-45)"/><rect class="cls-201" x="174.01" y="312.44" width="477.13" height="8.14" transform="translate(-102.97 384.44) rotate(-45)"/><rect class="cls-201" x="179.77" y="318.2" width="477.13" height="8.14" transform="translate(-105.35 390.19) rotate(-45)"/><rect class="cls-201" x="185.52" y="323.95" width="477.13" height="8.14" transform="translate(-107.73 395.95) rotate(-45)"/><rect class="cls-202" x="191.28" y="329.71" width="477.13" height="8.14" transform="translate(-110.12 401.71) rotate(-45)"/><rect class="cls-202" x="197.04" y="335.46" width="477.13" height="8.14" transform="translate(-112.5 407.46) rotate(-45)"/><polygon class="cls-202" points="607.17 173.72 609.84 176.39 609.84 182.56 276.55 515.85 274.54 515.85 269.79 511.1 607.17 173.72"/><polygon class="cls-203" points="609.84 194.07 288.06 515.85 276.55 515.85 609.84 182.56 609.84 194.07"/><polygon class="cls-203" points="609.84 205.59 299.58 515.85 288.06 515.85 609.84 194.07 609.84 205.59"/><polygon class="cls-204" points="609.84 217.1 311.09 515.85 299.58 515.85 609.84 205.59 609.84 217.1"/><polygon class="cls-205" points="609.84 228.61 322.6 515.85 311.09 515.85 609.84 217.1 609.84 228.61"/><polygon class="cls-206" points="609.84 240.12 334.11 515.85 322.6 515.85 609.84 228.61 609.84 240.12"/><polygon class="cls-207" points="609.84 251.63 345.63 515.85 334.11 515.85 609.84 240.12 609.84 251.63"/><polygon class="cls-208" points="609.84 263.15 357.14 515.85 345.63 515.85 609.84 251.63 609.84 263.15"/><polygon class="cls-209" points="609.84 274.66 368.65 515.85 357.14 515.85 609.84 263.15 609.84 274.66"/><polygon class="cls-210" points="609.84 286.17 380.16 515.85 368.65 515.85 609.84 274.66 609.84 286.17"/><polygon class="cls-211" points="609.84 297.68 391.67 515.85 380.16 515.85 609.84 286.17 609.84 297.68"/><polygon class="cls-212" points="609.84 309.19 403.19 515.85 391.67 515.85 609.84 297.68 609.84 309.19"/><polygon class="cls-213" points="609.84 320.71 414.7 515.85 403.19 515.85 609.84 309.19 609.84 320.71"/><polygon class="cls-214" points="609.84 332.22 426.21 515.85 414.7 515.85 609.84 320.71 609.84 332.22"/><polygon class="cls-215" points="609.84 343.73 437.72 515.85 426.21 515.85 609.84 332.22 609.84 343.73"/><polygon class="cls-216" points="609.84 355.24 449.23 515.85 437.72 515.85 609.84 343.73 609.84 355.24"/><polygon class="cls-217" points="609.84 366.75 460.75 515.85 449.23 515.85 609.84 355.24 609.84 366.75"/><polygon class="cls-218" points="609.84 378.27 472.26 515.85 460.75 515.85 609.84 366.75 609.84 378.27"/><polygon class="cls-219" points="609.84 389.78 483.77 515.85 472.26 515.85 609.84 378.27 609.84 389.78"/><polygon class="cls-219" points="483.77 515.85 609.84 389.78 609.84 515.85 483.77 515.85"/></g><path class="cls-220" d="M393.83,0C229,0,95.28,133.66,95.28,298.55S229,597.1,393.83,597.1s303-130.3,298.55-298.55C688,133.72,558.71,0,393.83,0Zm1.11,586.75c-158.48,0-287-129.56-287-289.37S236.46,8,394.94,8s287,129.56,287,289.38S553.42,586.75,394.94,586.75Z"/><path class="cls-221" d="M558.19,178.11H229.12S128.48,298.55,244.9,445.72H530.58S589.21,401.13,594,311.91C598.61,225.81,558.19,178.11,558.19,178.11Zm26.68,135.35c-2.69,73.5-60.3,124.08-60.3,124.08l-265.74-3.63c-108.44-133.19-20.91-244.53-20.91-244.53H546S588,229,584.87,313.46Z"/><path class="cls-222" d="M277.32,295.27H323v78H299l-.76-12.65h-.38c-4.76,12.25-17.31,15.47-29.29,15.47-35.95,0-39.18-27.13-39.18-74.55,0-48,8.75-74.54,50.59-74.54,25.11,0,43,13.46,43,48.22H288.73c0-7.23-.57-12.86-1.9-16.67-1.33-4-4-6.23-8.18-6.23-11.6,0-12.74,10.44-12.74,49.22s1.14,49.23,12,49.23c7.42,0,11.79-5,12-30.14H277.32Z"/><path class="cls-222" d="M336.09,229.77h50.6l14.26,85h.38l14.27-85h50.59V373.23h-33.1V266.34h-.38L413.88,373.23H388.4L369.57,266.34h-.38V373.23h-33.1Z"/><path class="cls-222" d="M480.27,229.77h53.06c27,0,39.19,19.09,39.19,44.21,0,29.33-15.79,44.6-44.51,44.6H515.65v54.65H480.27Zm35.38,61.89h6.65c8.94,0,13.7-5.43,13.7-17.48,0-11.86-4.76-17.48-13.7-17.48h-6.65Z"/><path class="cls-219" d="M322.67,158.87l.18,0c.12-.16.25-.32.35-.48,1.77-2.79,3.55-5.56,5.29-8.36a1,1,0,0,1,1.24-.5c2.7.72,5.4,1.41,8.11,2.11.71.18,1.42.34,2.14.5l.1-.19-.51-.61-6.1-7.38c-.64-.77-.63-.77-.12-1.57q2.63-4.12,5.23-8.26a5.9,5.9,0,0,0,.32-.71c-.35.12-.53.16-.7.23-3,1.21-6.1,2.4-9.13,3.64a1.06,1.06,0,0,1-1.45-.35c-2-2.51-4.11-5-6.18-7.48a7.66,7.66,0,0,0-.57-.57c0,1.82.08,3.55.19,5.29s.24,3.6.35,5.4c0,.38,0,.73-.45.91-2.35.91-4.69,1.85-7,2.78L311,144.49v.19a4.42,4.42,0,0,0,.6.24q4.82,1.25,9.64,2.46a.82.82,0,0,1,.73.86c.18,3.06.38,6.12.58,9.18C322.56,157.91,322.62,158.39,322.67,158.87Z"/><path class="cls-219" d="M352.45,146.56l.17.07c.15-.13.31-.26.45-.4,2.29-2.36,4.6-4.72,6.87-7.11a1,1,0,0,1,1.31-.24c2.5,1.25,5,2.48,7.52,3.71.65.33,1.32.62,2,.93l.14-.17-.38-.7L366,134.18c-.46-.87-.45-.87.21-1.56l6.79-7a6.21,6.21,0,0,0,.46-.63c-.36,0-.55,0-.73.08-3.23.56-6.46,1.11-9.68,1.71a1,1,0,0,1-1.35-.63c-1.48-2.88-3-5.73-4.53-8.58a7.83,7.83,0,0,0-.45-.67c-.39,1.77-.64,3.49-.88,5.21s-.5,3.58-.76,5.36c-.05.38-.11.72-.62.81-2.49.41-5,.85-7.45,1.28l-3.13.57,0,.19c.18.11.34.25.53.35l8.95,4.37a.82.82,0,0,1,.54,1c-.45,3-.87,6.07-1.3,9.11C352.54,145.59,352.51,146.08,352.45,146.56Z"/><path class="cls-219" d="M439,149.94l.1.14a5.58,5.58,0,0,0,.59-.1c3.2-.77,6.41-1.54,9.61-2.35a1,1,0,0,1,1.23.5c1.45,2.39,2.92,4.77,4.38,7.14.39.63.8,1.23,1.2,1.85l.2-.07.06-.79.72-9.56c.08-1,.08-1,1-1.21l9.49-2.32c.19,0,.38-.15.72-.28-.33-.17-.49-.26-.66-.33-3-1.24-6.06-2.5-9.1-3.71a1,1,0,0,1-.8-1.25c.27-3.23.5-6.45.73-9.68a7.3,7.3,0,0,0,0-.81c-1.28,1.3-2.4,2.62-3.52,3.94l-3.5,4.14c-.25.29-.48.55-1,.35-2.32-1-4.66-1.93-7-2.88-1-.41-2-.8-2.95-1.19l-.12.14a4.29,4.29,0,0,0,.26.58c1.74,2.82,3.48,5.65,5.24,8.46a.82.82,0,0,1-.07,1.13q-3,3.5-5.95,7C439.63,149.16,439.34,149.55,439,149.94Z"/><path class="cls-219" d="M382.47,143.23l.16.09.49-.34c2.56-2.08,5.12-4.15,7.66-6.26a1,1,0,0,1,1.33-.08c2.33,1.54,4.68,3.06,7,4.57.62.4,1.25.77,1.88,1.16l.15-.15c-.1-.25-.19-.5-.29-.74l-3.45-8.94c-.36-.93-.35-.92.39-1.53q3.79-3.07,7.57-6.17a6.7,6.7,0,0,0,.53-.57c-.37,0-.55,0-.73,0-3.27.18-6.55.35-9.82.56a1,1,0,0,1-1.26-.78c-1.14-3-2.32-6.05-3.5-9.06a6.91,6.91,0,0,0-.36-.72c-.6,1.72-1.05,3.39-1.49,5.07l-1.38,5.24c-.1.37-.2.7-.72.73-2.51.11-5,.26-7.55.4l-3.17.19-.05.18a3.8,3.8,0,0,0,.49.41q4.17,2.71,8.36,5.4a.82.82,0,0,1,.43,1c-.81,3-1.58,5.92-2.37,8.89C382.67,142.28,382.58,142.76,382.47,143.23Z"/><path class="cls-219" d="M410.89,144.12l.14.12.54-.25c2.9-1.58,5.8-3.14,8.68-4.75a1,1,0,0,1,1.32.17c2,1.93,4,3.85,6.07,5.77.53.51,1.08,1,1.63,1.48l.18-.12-.15-.78c-.59-3.14-1.17-6.28-1.76-9.42-.18-1-.18-1,.66-1.43q4.29-2.32,8.57-4.68a6.19,6.19,0,0,0,.63-.46,7,7,0,0,0-.72-.14c-3.25-.43-6.5-.86-9.75-1.25a1.05,1.05,0,0,1-1.1-1c-.56-3.18-1.17-6.36-1.78-9.54-.05-.26-.15-.51-.22-.77-.91,1.58-1.65,3.14-2.4,4.71l-2.31,4.9c-.17.34-.32.65-.84.58-2.49-.35-5-.66-7.5-1l-3.15-.39-.08.17a4.87,4.87,0,0,0,.4.5q3.62,3.42,7.24,6.83a.81.81,0,0,1,.22,1.1c-1.33,2.76-2.63,5.54-3.94,8.31C411.26,143.22,411.08,143.67,410.89,144.12Z"/><path class="cls-219" d="M150.77,347.28l-3.4-14.64,23.36-5.41,1.78,7.68L168.78,336l0,.12c4,.67,5.93,4.47,6.82,8.31,2.67,11.53-5.22,14.45-19.42,17.75-14.39,3.33-23,2.37-26.1-11-1.86-8.06.84-14.72,11.25-17.14l2.55,11a15.41,15.41,0,0,0-4.86,1.77,2.62,2.62,0,0,0-1.25,3c.86,3.72,4.07,3.36,15.69.67s14.67-3.79,13.86-7.26c-.55-2.38-2.38-3.44-9.92-1.75l.93,4Z"/><path class="cls-219" d="M124.28,312.89c-.94-11.86,5.15-16.43,21.6-17.72s23.18,2.26,24.12,14.12-5.16,16.42-21.61,17.72S125.21,324.75,124.28,312.89Zm37.95-3c-.28-3.56-3.51-3.68-15.4-2.75s-15.07,1.57-14.79,5.13,3.52,3.68,15.41,2.74S162.51,313.46,162.23,309.9Z"/><path class="cls-219" d="M124.08,273c.82-11.87,7.51-15.49,24-14.35s22.59,5.64,21.78,17.51-7.51,15.49-24,14.35S123.27,284.84,124.08,273Zm38,2.62c.24-3.56-2.94-4.15-14.84-5s-15.13-.66-15.38,2.9,2.94,4.15,14.84,5S161.82,279.15,162.07,275.59Z"/><path class="cls-219" d="M127.46,247.82l3.7-16.5c2.94-13.13,13.34-11.51,24.62-9s21.38,5.5,18.43,18.64l-3.7,16.49ZM165,244.3l.51-2.26c1-4.4-.7-5.36-12.34-8s-13.57-2.46-14.56,1.94l-.5,2.26Z"/><path class="cls-219" d="M151.24,172.68l8.55-14.29,24.84,9.39.06-.1-20-17.46,8.56-14.29,37.86,22.66-5.6,9.35-28.21-16.88-.06.1,25,22.21-4.3,7.2L166.54,169l-.06.11L194.69,186l-5.6,9.35Z"/><path class="cls-219" d="M185,121.81l9.59-11.08L235,131.35l-8.11,9.37-6.62-4.15-6.06,7,5.07,5.95-8.11,9.38Zm11.66.31-.08.1,12.07,14.66,4.26-4.93Z"/><path class="cls-219" d="M206.86,97.59l9.9-8.46,23.37,15.79.1-.08L222.56,84.17l8.28-7.08,28.67,33.54-9.71,8.3-23.61-15.67-.09.08,17.7,20.72-8.28,7.07Z"/><path class="cls-219" d="M248.92,65l16.83,27c2.26,3.62,4,3.87,5.82,2.71s2.39-2.8.13-6.42l-16.83-27,9.88-6.16,15.3,24.55c6.53,10.49,3.93,16.48-4.36,21.65s-14.82,4.86-21.36-5.63L239,71.15Z"/><path class="cls-219" d="M273.36,50.76l24.16-10.84,3.85,8.57-13.54,6.07,3.08,6.88,12.69-5.69L307.29,64l-12.68,5.69,7.44,16.58L291.42,91Z"/><path class="cls-219" d="M309.79,35.78l14-4.27,23.27,39-11.85,3.61-3.39-7L323,69.81l1.12,7.74-11.86,3.61Zm9.7,6.48-.12,0,2.4,18.84,6.23-1.9Z"/><path class="cls-219" d="M360.65,37.64c-.76-5-1.92-6.27-4.15-5.93-3.52.55-3.4,3.78-1.59,15.57s2.68,14.91,6.21,14.36c2.84-.44,3.09-3,1.81-11.22l11.14-1.72.5,3.24c1.88,12.22-4.9,16.26-12.27,17.4-12.93,2-16.76-4-19.27-20.23-2.57-16.68.35-23.25,12.29-25.09,10.39-1.61,15.12,3.17,16.42,11.6l.42,2.75L361,40.08Z"/><path class="cls-219" d="M384.75,31.72l-8.77.21-.24-9.76,29.17-.71.24,9.76-8.76.21.84,34.36-11.64.28Z"/><path class="cls-219" d="M423.05,22.91,419.7,54.56c-.45,4.24.74,5.49,2.92,5.72s3.6-.74,4.05-5L430,23.65l11.58,1.23-3.05,28.76c-1.3,12.29-7,15.41-16.76,14.38s-14.67-5.29-13.37-17.58l3.05-28.76Z"/><path class="cls-219" d="M451.49,26.65l17.64,4.55c8.61,2.22,10.64,7.86,8.95,14.44-1.47,5.68-4.67,8.82-10,8.27l0,.12c5.34,1.88,6.09,5.71,4.63,11.4l-.95,3.65c-.57,2.22-1.31,5.09-1,6.07a3.08,3.08,0,0,0,.93,1.64l-.15.6-12-3.1c-.51-2.55.54-6.62,1-8.42l.75-2.87c1.25-4.85.6-6.35-2.13-7.06l-3-.76-4.41,17.11-11.28-2.91Zm6.61,21,2.24.58c3.21.83,5.25-.81,6-3.86.9-3.47-.11-5.33-3.51-6.21l-2.18-.56Z"/><path class="cls-219" d="M489.18,37.41l10.89,4.12L484.46,82.8l-10.9-4.12Z"/><path class="cls-219" d="M508.41,44.62,520,50.55l-5.71,27.63.12.06L526.8,54l9.69,5L516.38,98.28,505,92.46l5.52-27.8-.11-.06L498,88.86l-9.69-5Z"/><path class="cls-219" d="M546,89.74l12.2,8.78-14,19.47-6.41-4.61,2.07-3.31-.1-.07c-3.47,2.15-7.41.54-10.61-1.76-9.61-6.91-5.61-14.31,2.91-26.15,8.62-12,15.72-16.94,26.9-8.9C565.67,78,568,84.81,561.79,93.5l-9.15-6.58a15.58,15.58,0,0,0,2.48-4.53,2.63,2.63,0,0,0-1.07-3.13c-3.1-2.23-5.28.16-12.24,9.85s-8.53,12.51-5.63,14.6c2,1.42,4.05,1,8.61-5.23l-3.36-2.41Z"/><path class="cls-219" d="M603.41,114.31,614.23,128c5.51,7,3.38,13.76-2.68,18.55-7.09,5.59-14,4.42-19.85-3l-2.52-3.2L576,150.79l-7.21-9.15Zm-7.73,20.93L597,137c1.82,2.31,4.1,2.51,7,.21s3.25-4.56,1.43-6.87l-1.36-1.72Z"/><path class="cls-219" d="M627.07,145.41l9.06,15.8c4.43,7.72,1.82,13.11-4.07,16.49-5.1,2.92-9.57,2.82-12.92-1.4l-.11.06c2.38,5.14.17,8.36-4.93,11.28l-3.27,1.87c-2,1.14-4.55,2.62-5,3.53a3,3,0,0,0-.53,1.82l-.53.31-6.17-10.75c1.47-2.15,5.12-4.24,6.73-5.16l2.57-1.48c4.34-2.49,5-4,3.57-6.45l-1.53-2.66-15.33,8.8-5.8-10.11Zm-10.4,19.39,1.16,2c1.65,2.88,4.25,3.19,7,1.62,3.11-1.78,3.73-3.8,2-6.84l-1.12-2Z"/><path class="cls-219" d="M649.42,188.31,654.71,202l-37.22,26.09L613,216.5l6.77-3.89L616.45,204l-7.63,1.68-4.48-11.56Zm-5.75,10.15,0-.12L625,202.12l2.36,6.08Z"/><path class="cls-219" d="M651.24,239.29c4.88-1.1,6.12-2.35,5.63-4.54-.79-3.49-4-3.15-15.64-.52s-14.69,3.7-13.9,7.18c.63,2.81,3.18,2.87,11.32,1l2.48,11-3.2.72c-12,2.72-16.56-3.77-18.2-11-2.88-12.77,2.82-17,18.85-20.62,16.46-3.71,23.22-1.26,25.88,10.53,2.32,10.26-2.12,15.31-10.44,17.19l-2.71.61-2.48-11Z"/><path class="cls-219" d="M658.77,263.06l-.77-8.73,9.73-.86,2.55,29.07-9.73.86-.77-8.74-34.23,3-1-11.61Z"/><path class="cls-219" d="M670.12,288.27l-.19,11.64-44.12-.73.19-11.64Z"/><path class="cls-219" d="M654.53,324.55c5,.57,6.56-.2,6.81-2.44.41-3.54-2.74-4.28-14.59-5.64s-15.09-1.35-15.49,2.2c-.33,2.86,2,3.76,10.34,4.71l-1.28,11.2-3.25-.37c-12.29-1.41-14.4-9-13.55-16.43,1.49-13,8.26-15.12,24.6-13.25,16.76,1.92,22.33,6.46,21,18.47-1.2,10.45-7.05,13.75-15.52,12.78l-2.77-.32,1.29-11.19Z"/><path class="cls-219" d="M664.74,346.34,658.09,372l-9.1-2.35,3.73-14.37-7.3-1.89-3.49,13.46-8.73-2.27,3.49-13.45-8.5-2.2-3.87,14.91-9.09-2.36L622,335.27Z"/><path class="cls-219" d="M195.93,494.05l-.26-9.14c-.5-.36-1.09-.71-1.63-1.1s-1.1-.88-1.65-1.36c-8.71-7.62-7.52-15,3.19-27.26s17.87-14.41,26.59-6.79,7.53,15-3.19,27.26c-5.5,6.29-10,9.92-14.39,10.9l.37,7.53Zm1.52-17.38c2.61,2.29,5,.14,12.72-8.71s9.56-11.49,6.94-13.77-5-.15-12.72,8.71S194.83,474.38,197.45,476.67Z"/><path class="cls-219" d="M244.15,467.4l-18.72,25.2c-2.51,3.38-2.13,5-.42,6.29s3.39,1.16,5.9-2.22l18.72-25.2,9.1,6.76-17,22.9c-7.27,9.79-13.66,9.6-21.29,3.93s-9.66-11.73-2.39-21.52l17-22.9Z"/><path class="cls-219" d="M267.13,483.59l12.1,7.54-14,42.55L255,527.3l3-7.08-7.66-4.77-5,5.86-10.25-6.38Zm1.4,11.36-.11-.07-12.4,14,5.38,3.35Z"/><path class="cls-219" d="M288.7,496.72l10.1,5.15-15.57,30.52,12.43,6.35L291.45,547l-22.54-11.5Z"/><path class="cls-219" d="M312.54,508.55,323,513l-17.12,40-10.42-4.45Z"/><path class="cls-219" d="M328.57,525.48l-8.08-2.76,3.12-9.12,26.88,9.19-3.11,9.12-8.08-2.77-11,32.08-10.73-3.66Z"/><path class="cls-219" d="M352.76,550.31l-5.24-28.15,12.15,2.64.95,15.74.12,0,7.39-13.92,12.15,2.64-16.44,23.44-3.64,16.74-11.08-2.41Z"/><path class="cls-219" d="M393.7,530.55l17,0c8.66,0,12.58,5.76,12.6,13.38,0,8.9-5,13.55-14.22,13.57h-4l.05,16.59-11.33,0Zm11.4,18.75h2.13c2.87,0,4.39-1.66,4.38-5.32s-1.54-5.3-4.41-5.29h-2.13Z"/><path class="cls-219" d="M424,530.36l17.48-3c8.53-1.48,12.61,2.77,13.75,9.38,1,5.7-.59,9.81-5.56,11.47l0,.12c5.49-.45,7.7,2.69,8.69,8.4l.63,3.67c.39,2.22.89,5.1,1.57,5.85a2.93,2.93,0,0,0,1.49,1.1l.11.6L450.27,570c-1.48-2.09-2.18-6.18-2.49-8l-.5-2.89c-.84-4.86-2-6-4.73-5.49l-2.94.51,3,17.18-11.17,1.93Zm14.31,16.21,2.22-.38c3.19-.55,4.34-2.86,3.81-5.92-.61-3.48-2.25-4.75-5.61-4.17l-2.17.38Z"/><path class="cls-219" d="M468.7,519.05c10.92-3.87,16.77.78,22.21,16.11s3.83,22.64-7.08,26.52-16.77-.78-22.22-16.12S457.78,522.92,468.7,519.05Zm12.56,35.39c3.27-1.16,2.56-4.27-1.38-15.36s-5.34-14-8.61-12.79-2.56,4.27,1.37,15.36S478,555.6,481.26,554.44Z"/><path class="cls-219" d="M484.9,514l14.48-7.82c11.53-6.23,17,2.57,22.47,12.6s9.75,19.47-1.78,25.7l-14.48,7.82Zm26.78,25.72,2-1.07c3.87-2.08,3.48-4-2.11-14.31s-6.95-11.7-10.81-9.61l-2,1.07Z"/><path class="cls-219" d="M522.28,491.79l18.45,25.4c2.48,3.4,4.16,3.54,5.88,2.29s2.12-2.9-.35-6.3l-18.45-25.4,9.17-6.66,16.77,23.08c7.16,9.86,5.07,15.9-2.62,21.49s-14.09,5.71-21.25-4.15l-16.77-23.08Z"/><path class="cls-219" d="M561,477.27c-3.31-3.66-5-4.13-6.6-2.66-2.57,2.33-.72,4.93,7.18,13.65s10.29,10.83,12.87,8.5c2.08-1.89.89-4.1-4.63-10.21l8.13-7.36,2.17,2.4c8.18,9,4.86,16-.52,20.86-9.44,8.55-15.82,5.69-26.7-6.34-11.17-12.34-12.38-19.3-3.65-27.2,7.59-6.87,14-5.47,19.68.77l1.84,2-8.13,7.37Z"/><path class="cls-219" d="M573.19,460.33l-5.84,6.22-7-6.58,19.43-20.73,7,6.59-5.84,6.22,24.73,23.18-7.75,8.28Z"/></g></g></svg>