<svg xmlns="http://www.w3.org/2000/svg" viewBox="0 0 472.41 472.41"><defs><style>.cls-1{fill:#fff;}.cls-2{fill:#004c90;}</style></defs><title>ISO</title><g id="Layer_2" data-name="Layer 2"><g id="Layer_1-2" data-name="Layer 1"><circle class="cls-1" cx="236.21" cy="236.21" r="234.71"/><path class="cls-2" d="M236.21,472.41a236.21,236.21,0,0,1-167-403.23A236.21,236.21,0,0,1,403.23,403.23,234.66,234.66,0,0,1,236.21,472.41ZM236.21,3C107.62,3,3,107.62,3,236.21s104.62,233.2,233.21,233.2,233.2-104.61,233.2-233.2S364.8,3,236.21,3Z"/><circle class="cls-2" cx="236.21" cy="236.21" r="160.66"/><path class="cls-1" d="M341.42,196.42a29.29,29.29,0,0,0-11.14-13.36c-14.48-9.2-36.55-9.86-51.47-1.55-8.14,4.16-13.49,12.37-15.16,20.82-3,13.89-2.24,30.42,8.46,40.83,12.49,10.94,30.65,13.36,46.8,8.87a21.28,21.28,0,0,0,4.88-1.65l.47-.2a33,33,0,0,0,13.37-10.08C345.88,228.05,346.44,210,341.42,196.42Zm-26.29,31.19A8.58,8.58,0,0,1,310,234a17.55,17.55,0,0,1-14.59-.88c-3.45-2.41-3.89-6.46-4.34-10.29-.34-7.55-.88-15.54,1.23-22.45,1.66-4.27,6.23-5.37,10.36-5.69,4.35,0,8.57.66,11.25,4.16,1.67,2.51,1.57,5.8,1.9,8.76C315.68,213.82,316.24,221.26,315.13,227.61Z"/><path class="cls-1" d="M183.09,234.41c-3.68-.22-7.8.1-11.36-.34l.11-38.43.22-.32,11-.11c.12-6.24.22-12.93-.12-18.61l-42-.12-6.92.12c-.1,5.8-.1,12.58,0,18.49,3.8.12,7.36,0,11,.34v37.23l-.1,1.53-11,.22c-.24,6.12-.24,12,0,18.07h49.13Z"/><path class="cls-1" d="M306.76,260.68a85.15,85.15,0,0,1-17,18.17c-.23.34-.9.21-1.12-.11-2.79-1.74-5.8-3.17-8.47-4.91a91.9,91.9,0,0,0,9.7-13.27h-3.47A76.91,76.91,0,0,1,277,272.51a119.76,119.76,0,0,0-14.37-5.05l-.56-.42c.78-2.21,2.22-4.28,2.67-6.48h-3l-3,5.92a144.59,144.59,0,0,0-20.5-2.63c-.34-1,.1-2.4-.34-3.29H235c-.24,1.32.33,2.32-.34,3.41a128.84,128.84,0,0,0-20.05,2.42l-3-5.83a9.42,9.42,0,0,0-3.11.12l2.78,6.46-.33.32a145.38,145.38,0,0,0-14.71,5.15l-.44-.22a87.38,87.38,0,0,1-8.59-10.83c-.55-1.87-2.78-.77-4-1,2.66,4.83,6.23,9.09,9.79,13.48-3,1.76-6,3.71-9.13,5.15a79.93,79.93,0,0,1-17.6-18.51,12.94,12.94,0,0,0-3.57,0,87.34,87.34,0,0,0,33.54,29.89.11.11,0,0,1,.12-.1c.1,0,.32.2.1.32a92.16,92.16,0,0,0,28.08,8.66c34.21,4.48,66.86-10.08,85.79-38.77A17.73,17.73,0,0,0,306.76,260.68Zm-46.45,9.86.33-.23a62.45,62.45,0,0,1,13.6,4.71,70,70,0,0,1-12.37,10.51c-2.56,1.53-5.13,3.19-7.81,4.49l-4.78-2.08.33-.76A132.42,132.42,0,0,0,260.31,270.54Zm-22-3.29A87.27,87.27,0,0,1,257,269.44l.12.33a112.72,112.72,0,0,1-11.26,17c-1.9.22-3.67-.54-5.56-.65l-1.91-.23C238.13,279.4,238,273.71,238.35,267.25Zm-21.49,2a96.29,96.29,0,0,1,18-2l.12,18.52c-2.35.53-4.91.53-7.14,1.09a97.53,97.53,0,0,1-11.58-17.21Zm-18,5.92a73.75,73.75,0,0,1,13.59-4.83l.46.12a169.89,169.89,0,0,0,11.24,17.4c-1.55.89-3.45,1.42-5,2.3a75.08,75.08,0,0,1-20.29-14.67Zm14.38,18.72a79.12,79.12,0,0,1-26.08-12.27v-.33a63.49,63.49,0,0,1,8.25-4.6,113.21,113.21,0,0,0,20.06,15.44A8.94,8.94,0,0,1,213.29,293.86Zm41.33,1.41a84.89,84.89,0,0,1-36.76-.21c-.23-.54.55-.66.89-1,10.36-6.68,26.51-6.68,36.66.53C255.74,295.27,254.85,295.06,254.62,295.27Zm10.7-3-5.24,1.64a12.53,12.53,0,0,1-2.45-1.76l.22-.33a98.91,98.91,0,0,0,19.72-15.22,43.52,43.52,0,0,1,8.59,4.71C279.92,286.2,272.68,289.47,265.32,292.22Z"/><path class="cls-1" d="M166.05,168.16a100.22,100.22,0,0,1,9-10.84,59.9,59.9,0,0,1,8.69-7.34c2.9,1.86,6.13,3.41,8.91,5.16-3.45,4.25-7,8.54-9.58,13.12a6.52,6.52,0,0,0,3.35,0,84.75,84.75,0,0,1,9.36-11.71c4.78,1.76,9.47,3.61,14.37,4.93l.44.44-2.78,6.34a9.73,9.73,0,0,0,3.23,0c1-1.85,1.77-3.93,2.89-5.8a109.19,109.19,0,0,0,20.18,2.41c.89.77.22,2.41.55,3.39h3c.32-1.07-.11-2.3.32-3.27a107,107,0,0,0,19.52-2.53l.55.12,3,5.68c1,0,2.34.24,3.13-.22l-2.8-6.33.24-.23a122.34,122.34,0,0,0,14.81-5.25,103,103,0,0,1,9.59,12,10.37,10.37,0,0,0,3.34-.22,45,45,0,0,0-4.79-6.9,48.05,48.05,0,0,0-4.91-5.89v-.57l7.8-4.48,1.12-.44A81.35,81.35,0,0,1,306.21,168c1.34,0,2.46.46,3.57-.1a88.19,88.19,0,0,0-66.18-38.75l-.11.21-.23-.21a51.13,51.13,0,0,0-9.92-.13,26.63,26.63,0,0,0-4.12.13,87.31,87.31,0,0,0-66.74,39.07C163.59,168.16,164.93,168.6,166.05,168.16Zm46.24-9.63-.45.1a89.09,89.09,0,0,1-13.26-4.48l.22-.66a87.7,87.7,0,0,1,19.72-14.34c1.67.66,3.34,1.2,5,2l-.33.85A141.37,141.37,0,0,0,212.29,158.53Zm22.16,2.95c-3.11.44-5.89-.09-9-.34-3-.43-6.79-.75-9.79-1.75a97.22,97.22,0,0,1,11.59-17.16l7.13,1C234.68,148.88,234.45,155.46,234.45,161.48Zm3.46.12c-.22-5.82-.11-12.27,0-18.3l6.91-1c4.34,5.47,8.58,11.07,11.48,17.07A79.36,79.36,0,0,1,237.91,161.6Zm35.55-7.67a73,73,0,0,1-13.6,4.6,187.18,187.18,0,0,0-11.48-17.21c1.56-.85,3.46-1.51,5.13-2.38a78.77,78.77,0,0,1,20.17,14.65ZM259.19,135.2a79.41,79.41,0,0,1,26.18,12.27l-.22.43-7.68,4.27h-.56a97.05,97.05,0,0,0-19.83-15.1C257.3,136.3,258.41,135.75,259.19,135.2Zm-4.45-1.09v.22c-9.7,7-25.41,7.65-35.65,1.19-.57-.43-1.68-.65-1.8-1.41C229.11,131.38,243,131.16,254.74,134.11Zm-68,13.58a79.86,79.86,0,0,1,23.06-11.6c.34-.34.56-.66,1-.66v.22c.9.21,1.57-.78,2.34-.13s1.46,1,2,1.55a112.49,112.49,0,0,0-20,15.42,36.79,36.79,0,0,1-8.46-4.59Z"/><path class="cls-1" d="M234.57,235.27c-10.48,2.85-21.84.67-29.42-7.22-.88-1.1-1.45-2.4-2.34-3.49l-15,.1c-.23,8.87-.33,19.05,0,27.82l16.71-.11.22-5.26c1.9.87,3.8,2,5.69,2.95,11.59,4.82,26.51,5.92,38,0a22.5,22.5,0,0,0,11.59-23c-1.22-9.3-10.14-17.73-19.16-20l-27-7.78-2-1a3.07,3.07,0,0,1-1.23-3c2.12-3.61,7-2.51,10.7-2.42,7.8,1.1,15.82,3.73,20.39,10.85,4.9,0,10.58.1,15.93-.12.22-9-.1-16.85-.22-25.94-5-.11-11.15-.11-16.16.12-.22,1.3.22,3.15-.33,4.47l-5.13-2.74c-12.26-5.14-29.42-5.68-40.56,2.31-7.24,5.25-9.46,14.68-7.57,23,1.44,7.88,9,13.68,16.27,16.42,9.91,3.5,20.27,6,30.31,9.42,1,.44,2.33,1.43,2.12,2.64C236.36,234.29,235.35,234.85,234.57,235.27Z"/><path class="cls-1" d="M157.52,342.3c0,5.28-2.92,8.15-9.08,8.15-5.83,0-8.86-2.87-8.86-7.89v-.8h5.62v1.12c0,2.24,1.19,3.09,3.08,3.09,2.11,0,3.29-.85,3.29-3.85v-5.7h-.1c-1,1.8-2.76,2.74-5.4,2.74-4.38,0-6.59-2.56-6.59-7.17v-5.74c0-5,3.18-7.89,9-7.89s9,2.87,9,7.89Zm-6-10.72v-5.64c0-2.24-1.18-3.05-3.07-3.05s-3.08.81-3.08,3.05v5.64c0,2.25,1.19,3.1,3.08,3.1S151.57,333.83,151.57,331.58Z"/><path class="cls-1" d="M161,326.25c0-5,3.19-7.89,9-7.89s9,2.87,9,7.89v16.31c0,5-3.19,7.89-9,7.89s-9-2.87-9-7.89Zm5.95,16.63c0,2.24,1.18,3.09,3.08,3.09s3.07-.85,3.07-3.09V325.94c0-2.24-1.18-3.09-3.07-3.09s-3.08.85-3.08,3.09Z"/><path class="cls-1" d="M182.37,326.25c0-5,3.18-7.89,9-7.89s9,2.87,9,7.89v16.31c0,5-3.19,7.89-9,7.89s-9-2.87-9-7.89Zm5.94,16.63c0,2.24,1.19,3.09,3.08,3.09s3.08-.85,3.08-3.09V325.94c0-2.24-1.19-3.09-3.08-3.09s-3.08.85-3.08,3.09Z"/><path class="cls-1" d="M207.92,322.67c4.59,0,5.61-1.84,6.53-3.95h4v31.37h-5.94V326.16h-4.59Z"/><path class="cls-1" d="M231.36,328.27V333h-5.73v-4.75Zm0,17.07v4.75h-5.73v-4.75Z"/><path class="cls-1" d="M244.38,322.85c-1.89,0-3.08.85-3.08,3.09v3.36h-5.62v-3.05c0-5,3-7.89,8.86-7.89s8.86,2.87,8.86,7.89c0,4.17-1.84,7.53-7.35,12.42-3.51,3.13-4.48,4.61-4.48,6.27a3,3,0,0,0,.05.67h11.24v4.48H235.68v-3.85c0-3.5,1.51-6.14,5.94-10s5.84-6.46,5.84-9.82C247.46,323.61,246.27,322.85,244.38,322.85Z"/><path class="cls-1" d="M256.59,326.25c0-5,3.18-7.89,9-7.89s9,2.87,9,7.89v16.31c0,5-3.19,7.89-9,7.89s-9-2.87-9-7.89Zm5.94,16.63c0,2.24,1.19,3.09,3.08,3.09s3.08-.85,3.08-3.09V325.94c0-2.24-1.19-3.09-3.08-3.09s-3.08.85-3.08,3.09Z"/><path class="cls-1" d="M282.14,322.67c4.59,0,5.61-1.84,6.53-3.95h4v31.37h-5.94V326.16h-4.59Z"/><path class="cls-1" d="M305.2,340v2.91c0,2.24,1.19,3.05,3.08,3.05s3.08-.81,3.08-3.05V336c0-2.24-1.19-3.1-3.08-3.1s-3.08.86-3.08,3.1v.94h-5.62l1.08-18.2h15.67v4.48H306l-.49,7.49h.11a5.93,5.93,0,0,1,5.13-2.29c4.38,0,6.59,2.56,6.59,7.17v7c0,5-3,7.89-8.86,7.89s-8.86-2.87-8.86-7.89V340Z"/><path class="cls-2" d="M112.29,92.27l4.29,4.34c5.16,5.22,5,11.32-1.1,17.32s-12.17,6.14-17.34.91l-16.79-17c-5.16-5.22-5-11.32,1.1-17.33s12.17-6.13,17.34-.91l3.13,3.17-5.84,5.79-3.46-3.5c-2.31-2.33-4.42-2-6.39,0s-2.32,4.06,0,6.39l17.44,17.62c2.3,2.34,4.37,2,6.34,0s2.37-4,.06-6.34l-4.61-4.67Z"/><path class="cls-2" d="M129.18,68.49l10.14-6.29,3.46,5.57-10.15,6.29,7.09,11.43,12.76-7.92,3.46,5.57L135.79,95.65l-24.2-39,20.15-12.51,3.46,5.57-12.77,7.92Z"/><path class="cls-2" d="M186.19,71.13c-.83-1-1.36-1.55-2.56-5.09l-2.3-6.84c-1.37-4-3.52-5-7.27-3.71l-2.84,1,6,17.71L169,77l-14.69-43.5,12.44-4.2c8.54-2.88,13.32-.83,15.58,5.88l1.16,3.42C185,43,184.2,46.46,181,49.13l0,.13c4.61,0,7,2.81,8.58,7.34l2.26,6.72a11.44,11.44,0,0,0,2.69,5ZM164.61,36.88l4.51,13.36,3.22-1.09c3.07-1,4.57-2.79,3.39-6.27l-1.45-4.28c-1-3.11-2.78-4.05-5.7-3.06Z"/><path class="cls-2" d="M201.19,20.32l26.75-2.64.64,6.53-9.05.89,3.87,39.17-8.66.85L210.88,26l-9,.89Z"/><path class="cls-2" d="M250.49,18.36l8.67.73-3.87,45.75-8.66-.73Z"/><path class="cls-2" d="M287,44.9l10.83,3-1.74,6.33-10.82-3-5,18.28-8.39-2.3L284,22.93,306.17,29l-1.74,6.32-13.8-3.78Z"/><path class="cls-2" d="M327.42,37.81l7.82,3.8-20,41.31-7.82-3.79Z"/><path class="cls-2" d="M352.54,74.81l9.59,7.12-3.91,5.27-9.59-7.12-8,10.79,12.05,9-3.91,5.27L329.72,91,357.1,54.09l19,14.15-3.91,5.26-12.06-9Z"/><path class="cls-2" d="M394.38,85.24l8.89,10.49c5.63,6.63,5.34,12.48-.27,17.23l-17.71,15c-5.6,4.75-11.41,4.09-17-2.55l-8.9-10.49ZM395,96.11l-25,21.21,3.17,3.74c1.79,2.11,3.77,2.61,6.27.49l18.21-15.44c2.5-2.12,2.33-4.15.54-6.26Z"/><path class="cls-2" d="M103.29,386.91l-4.86,4.19c-5.86,5-12.24,4.4-18.11-2.4s-5.56-13.21.29-18.26l19-16.4c5.86-5.05,12.24-4.41,18.11,2.4s5.56,13.21-.29,18.26l-3.55,3.06-5.65-6.55,3.92-3.38c2.61-2.25,2.41-4.49.51-6.7s-4.09-2.73-6.71-.48l-19.75,17c-2.61,2.26-2.36,4.45-.46,6.66s4,2.78,6.65.52l5.23-4.5Z"/><path class="cls-2" d="M131.41,387c4.28-6.43,10.81-7.4,18.29-2.42s9.12,11.36,4.85,17.8l-13.9,20.92c-4.28,6.43-10.81,7.39-18.29,2.42s-9.13-11.36-4.85-17.8Zm-6.55,26.39c-1.91,2.87-1.11,5,1.32,6.58s4.67,1.54,6.58-1.34L147.2,397c1.91-2.87,1.11-5-1.32-6.59s-4.67-1.53-6.58,1.34Z"/><path class="cls-2" d="M185,438.6l.16,0,15.1-31.4,12.26,3.41-12.91,46.53-8.33-2.31,9.26-33.38-.16,0-15.2,31.73-8.33-2.32,2.72-34.68-.16-.05-9.13,32.91-7.69-2.14,12.91-46.53,12.26,3.4Z"/><path class="cls-2" d="M257.37,422.49l.24,6.27c.28,7.73-4.05,12.1-13.19,12.44l-4.32.16.67,18.14-9.14.34-1.8-48.27,13.47-.5C252.44,410.73,257.09,414.77,257.37,422.49Zm-18.14-4.37.61,16.35,4.32-.17c2.91-.1,4.45-1.27,4.32-4.71l-.27-7.24c-.13-3.45-1.75-4.5-4.66-4.39Z"/><path class="cls-2" d="M313.31,445.23,304.5,448l-4.14-7.88-10.71,3.38,1.13,8.83-8,2.53L277.13,406l12.77-4Zm-24.52-8.33,8.41-2.66-11.47-22-.16.05Z"/><path class="cls-2" d="M326.44,398.84l-.14.1,19.59,29-6.82,4.61-27.05-40,9.5-6.43,23.85,18.78.13-.1-16.19-23.95,6.75-4.56,27.06,40-7.79,5.26Z"/><path class="cls-2" d="M379,378.62l-32.23-11.75,6.11-7.35,21.35,8.76.1-.13L361.8,348.77l5.59-6.71,17.44,29.52,12.32,10.24-5.85,7Z"/></g></g></svg>