<svg xmlns="http://www.w3.org/2000/svg" viewBox="0 0 276.76 293.66"><defs><style>.cls-1{fill:#e77d37;}.cls-1,.cls-2{fill-rule:evenodd;}.cls-2{fill:#2c2a2a;}</style></defs><title>Shefexil</title><g id="Layer_2" data-name="Layer 2"><g id="Layer_1-2" data-name="Layer 1"><path class="cls-1" d="M247.91,256.61h11.25v27.48h17.6v9H247.91Zm-19.35,0h11.3v36.44h-11.3Zm-42.53,0h12.41l6.46,11.22,6.27-11.22h12.26l-11.32,17.65,12.39,18.79H211.83l-7.15-11.7-7.2,11.7H184.91l12.56-19Zm-34.26,0H181.9v7.79H163.07v5.8h17.45v7.43H163.07v7.18h19.39v8.24H151.77Zm-33.89,0h27.83v7.84H129.17v6.36h14.15v7.38H129.17v14.86H117.88Zm-36.8,0H111.2v7.79H92.37v5.8h17.46v7.43H92.37v7.18h19.39v8.24H81.08Zm-42.34,0H50v12.73H62.3V256.61H73.59v36.44H62.3V278.29H50v14.76H38.74ZM0,281l10.69-.67a8.06,8.06,0,0,0,1.41,3.95,6,6,0,0,0,5,2.21,5.49,5.49,0,0,0,3.71-1.13,3.26,3.26,0,0,0,.08-5.16c-.83-.75-2.74-1.44-5.75-2.11-4.94-1.1-8.45-2.58-10.56-4.42a8.88,8.88,0,0,1-3.17-7A9.53,9.53,0,0,1,3,261.36a10.72,10.72,0,0,1,4.9-3.93,22.87,22.87,0,0,1,9-1.43c4.66,0,8.2.87,10.65,2.61s3.89,4.48,4.36,8.27l-10.59.62a5.75,5.75,0,0,0-1.77-3.6,5.64,5.64,0,0,0-3.74-1.13,4.54,4.54,0,0,0-3,.83,2.55,2.55,0,0,0-1,2,2.05,2.05,0,0,0,.8,1.56,9.05,9.05,0,0,0,3.76,1.34,47.17,47.17,0,0,1,10.56,3.22,11.14,11.14,0,0,1,4.65,4,10.3,10.3,0,0,1,1.45,5.4,11.67,11.67,0,0,1-1.93,6.46,12.09,12.09,0,0,1-5.43,4.48,21.77,21.77,0,0,1-8.76,1.53q-9.28,0-12.86-3.58A14,14,0,0,1,0,281Z"/><path class="cls-1" d="M122.75,0c71.66-.1,129.91,54.56,132.17,117.68C255.86,183,197,238.19,122.47,233.19,59.6,227.57,12.25,177.87,23,121c7.27-35,34.21-59.6,69.62-73.56,7.14-3,23.68-6.62,17.68-16-6.52-6.29-14.15-8.23-22.07-12.48-9.92-3.81-9.32-9.47.48-13.33C98.61,1.1,111.81,0,122.75,0"/><path class="cls-2" d="M120,150.74c-23.53,1.13-47.57-8.33-49.69-39.07,36.62-4.83,59.89,7.7,59.19,35.32v41.44H68.13v-9.52H120Zm36.44,0c23.52,1.13,47.55-8.33,49.66-39.07-36.59-4.83-59.87,7.7-59.18,35.32v41.44h61.34v-9.52H156.4Zm-18.21-9.55h0Zm0,0C138,67,187.88,52.81,207,103.09c-25.36-3.91-59.54.65-68.78,38.1Zm0,0h0c.1-74.19-49.71-88.37-68.78-38.09C94.73,99.18,128.91,103.74,138.19,141.19Zm0,0V89m0,0v0c0-18.34,20.09-24.43,31.09-21.51C163,54.59,151.34,45.88,138.19,45c-13.16.84-24.88,9.55-31.11,22.4,11-2.92,31.06,3.17,31.11,21.51Z"/></g></g></svg>